<svg width="18" height="18" viewBox="0 0 18 18" fill="none" xmlns="http://www.w3.org/2000/svg">
<g clip-path="url(#clip0_3309_21721)">
<path d="M9.10906 1.28456C9.15307 2.00414 8.57985 2.62471 7.82874 2.67065C7.07763 2.71659 6.43306 2.1705 6.38904 1.45093C6.34503 0.731349 6.91825 0.110775 7.66936 0.0648353C8.42048 0.0188953 9.06505 0.564986 9.10906 1.28456Z" fill="#005FF9"/>
<path d="M9.29516 14.3483L8.82278 14.4562L8.73413 14.0923L9.20651 13.9844L9.29516 14.3483Z" fill="#005FF9"/>
<path d="M8.3504 14.5642L7.87802 14.6721L7.78937 14.3082L8.26175 14.2003L8.3504 14.5642Z" fill="#005FF9"/>
<path fill-rule="evenodd" clip-rule="evenodd" d="M15.0188 13.4579C15.0539 13.3793 15.0777 13.3778 15.1811 13.3715C15.3322 13.3622 15.4286 13.5017 15.4383 13.6617C15.4711 13.794 15.4506 13.9336 15.381 14.0526C15.3114 14.1716 15.1977 14.2614 15.0625 14.3041L3.96213 16.8491L3.41099 16.9746C3.31928 17.0071 3.22006 17.0145 3.12447 16.9961C3.02888 16.9776 2.94067 16.934 2.86974 16.8701L2.86694 16.8243C2.85855 16.6872 3.04899 16.5379 3.3007 16.4766L5.09587 16.0685L5.24005 15.271L5.11801 15.2988L5.02961 14.9349L5.23037 14.8892L5.27548 15.0748L6.35935 8.79463C6.34636 8.7166 6.34152 8.63747 6.3449 8.55843L6.37997 4.69412L5.34499 5.26218L4.5684 7.18341C4.53448 7.24957 4.48709 7.3086 4.42903 7.35701C4.37097 7.40542 4.30342 7.44222 4.23038 7.46523C4.15734 7.48824 4.08031 7.49699 4.00384 7.49097C3.92737 7.48494 3.85302 7.46426 3.78519 7.43015C3.67648 7.39382 3.58081 7.32879 3.50917 7.24254C3.43753 7.15629 3.39282 7.05231 3.38016 6.94252C3.3616 6.88331 3.35777 6.82069 3.36898 6.75966L4.3019 4.52296C4.32901 4.46425 4.36619 4.41028 4.41188 4.36327L4.54196 4.27119L6.61518 3.18841C6.72358 3.03774 6.86809 2.91409 7.0365 2.82792C7.20491 2.74174 7.39228 2.69557 7.58278 2.6933L7.66231 2.68843C7.93394 2.69195 8.19723 2.77653 8.41554 2.93041C8.63385 3.08429 8.79632 3.29981 8.88034 3.54697L10.3659 4.60329L12.5213 4.47146C12.6712 4.4759 12.8131 4.53651 12.9165 4.64028C13.0198 4.74405 13.0764 4.88271 13.0741 5.02653C13.0917 5.16787 13.0513 5.31051 12.9615 5.42443C12.8717 5.53834 12.7394 5.61463 12.5926 5.63722L10.0873 5.79045C10.0206 5.79553 9.95387 5.7838 9.89361 5.75641C9.84627 5.74395 9.80174 5.72336 9.76216 5.69562L8.92769 5.10424L8.91527 8.16414L11.2546 11.562C11.3805 11.6769 11.4557 11.8336 11.465 12.0004L11.5536 13.4491L11.7139 13.4125L11.8025 13.7764L11.6096 13.8205L11.5651 13.6379L11.623 14.5833L14.9588 13.7828C15.0046 13.7526 15.0046 13.6708 15.0046 13.593C15.0046 13.5404 15.0046 13.4896 15.0188 13.4579ZM6.9383 15.6499L10.0168 14.9492L9.98077 14.1917L9.76754 14.2404L9.67889 13.8765L9.91508 13.8225L9.97488 14.068L9.90508 12.6005L8.0213 9.86311L7.15656 14.4528L7.31699 14.4161L7.40564 14.78L7.16945 14.834L7.12177 14.6383L6.97061 15.5256C6.96348 15.5678 6.95267 15.6094 6.9383 15.6499Z" fill="#005FF9"/>
<path d="M18.3603 14.5549L18.1546 14.6018L18.0661 14.2378L18.2718 14.1909L18.3603 14.5549Z" fill="#005FF9"/>
<path d="M17.7431 14.6956L17.3317 14.7894L17.2432 14.4255L17.6546 14.3317L17.7431 14.6956Z" fill="#005FF9"/>
<path d="M16.9202 14.8832L16.5087 14.977L16.4202 14.6131L16.8317 14.5193L16.9202 14.8832Z" fill="#005FF9"/>
<path d="M16.0972 15.0708L15.6858 15.1647L15.5973 14.8007L16.0088 14.7069L16.0972 15.0708Z" fill="#005FF9"/>
<path d="M15.2743 15.2585L14.8628 15.3523L14.7744 14.9884L15.1858 14.8945L15.2743 15.2585Z" fill="#005FF9"/>
<path d="M14.4514 15.4461L14.0399 15.5399L13.9514 15.176L14.3629 15.0822L14.4514 15.4461Z" fill="#005FF9"/>
<path d="M13.6284 15.6337L13.2169 15.7276L13.1285 15.3636L13.5399 15.2698L13.6284 15.6337Z" fill="#005FF9"/>
<path d="M12.8055 15.8214L12.394 15.9152L12.3055 15.5513L12.717 15.4574L12.8055 15.8214Z" fill="#005FF9"/>
<path d="M11.9825 16.009L11.5711 16.1028L11.4826 15.7389L11.8941 15.6451L11.9825 16.009Z" fill="#005FF9"/>
<path d="M11.1596 16.1966L10.7481 16.2904L10.6597 15.9265L11.0711 15.8327L11.1596 16.1966Z" fill="#005FF9"/>
<path d="M10.3367 16.3843L9.92519 16.4781L9.83672 16.1141L10.2482 16.0203L10.3367 16.3843Z" fill="#005FF9"/>
<path d="M9.51372 16.5719L9.10225 16.6657L9.01378 16.3018L9.42525 16.208L9.51372 16.5719Z" fill="#005FF9"/>
<path d="M8.69078 16.7595L8.27931 16.8533L8.19084 16.4894L8.60231 16.3956L8.69078 16.7595Z" fill="#005FF9"/>
<path d="M7.86784 16.9471L7.45637 17.041L7.3679 16.677L7.77937 16.5832L7.86784 16.9471Z" fill="#005FF9"/>
<path d="M7.0449 17.1348L6.63343 17.2286L6.54496 16.8647L6.95643 16.7709L7.0449 17.1348Z" fill="#005FF9"/>
<path d="M6.22196 17.3224L5.81049 17.4162L5.72202 17.0523L6.13349 16.9585L6.22196 17.3224Z" fill="#005FF9"/>
<path d="M5.39902 17.51L4.98755 17.6039L4.89908 17.2399L5.31055 17.1461L5.39902 17.51Z" fill="#005FF9"/>
<path d="M4.57609 17.6977L4.16461 17.7915L4.07614 17.4276L4.48761 17.3337L4.57609 17.6977Z" fill="#005FF9"/>
<path d="M3.75315 17.8853L3.34168 17.9791L3.2532 17.6152L3.66467 17.5214L3.75315 17.8853Z" fill="#005FF9"/>
<path d="M2.93021 18.0729L2.51874 18.1667L2.43026 17.8028L2.84173 17.709L2.93021 18.0729Z" fill="#005FF9"/>
<path d="M2.10727 18.2606L1.6958 18.3544L1.60732 17.9904L2.01879 17.8966L2.10727 18.2606Z" fill="#005FF9"/>
<path d="M1.28433 18.4482L1.07859 18.4951L0.990118 18.1312L1.19585 18.0843L1.28433 18.4482Z" fill="#005FF9"/>
<path d="M17.5892 12.4546L17.782 12.4105L17.6934 12.0466L17.5005 12.0907L17.5892 12.4546Z" fill="#005FF9"/>
<path d="M16.8176 12.6308L17.2034 12.5427L17.1147 12.1788L16.729 12.2669L16.8176 12.6308Z" fill="#005FF9"/>
<path d="M16.046 12.8071L16.4318 12.7189L16.3432 12.355L15.9574 12.4432L16.046 12.8071Z" fill="#005FF9"/>
<path d="M15.2745 12.9833L15.6603 12.8952L15.5716 12.5313L15.1859 12.6194L15.2745 12.9833Z" fill="#005FF9"/>
<path d="M14.5029 13.1596L14.8887 13.0714L14.8001 12.7075L14.4143 12.7957L14.5029 13.1596Z" fill="#005FF9"/>
<path d="M13.7314 13.3358L14.1172 13.2477L14.0285 12.8838L13.6427 12.9719L13.7314 13.3358Z" fill="#005FF9"/>
<path d="M12.9598 13.5121L13.3456 13.4239L13.257 13.06L12.8712 13.1482L12.9598 13.5121Z" fill="#005FF9"/>
<path d="M12.1883 13.6883L12.574 13.6002L12.4854 13.2363L12.0996 13.3244L12.1883 13.6883Z" fill="#005FF9"/>
<path d="M4.31493 15.4818L4.71647 15.3903L4.62807 15.0264L4.22653 15.1178L4.31493 15.4818Z" fill="#005FF9"/>
<path d="M3.51185 15.6647L3.91339 15.5733L3.82499 15.2093L3.42345 15.3008L3.51185 15.6647Z" fill="#005FF9"/>
<path d="M2.70878 15.8477L3.11032 15.7562L3.02191 15.3923L2.62037 15.4838L2.70878 15.8477Z" fill="#005FF9"/>
<path d="M1.9057 16.0307L2.30724 15.9392L2.21883 15.5752L1.81729 15.6667L1.9057 16.0307Z" fill="#005FF9"/>
<path d="M1.10262 16.2136L1.50416 16.1221L1.41575 15.7582L1.01422 15.8497L1.10262 16.2136Z" fill="#005FF9"/>
<path d="M0.500312 16.3508L0.701082 16.3051L0.612676 15.9411L0.411907 15.9869L0.500312 16.3508Z" fill="#005FF9"/>
</g>
<defs>
<clipPath id="clip0_3309_21721">
<rect width="18" height="18" fill="white"/>
</clipPath>
</defs>
</svg>
