<svg width="18" height="18" viewBox="0 0 18 18" fill="none" xmlns="http://www.w3.org/2000/svg">
<path d="M0 4.5C0 3.25736 1.00736 2.25 2.25 2.25H15.75C16.9926 2.25 18 3.25736 18 4.5V13.5C18 14.7426 16.9926 15.75 15.75 15.75H2.25C1.00736 15.75 0 14.7426 0 13.5V4.5ZM2.25 3.375C1.62868 3.375 1.125 3.87868 1.125 4.5V5.625H16.875V4.5C16.875 3.87868 16.3713 3.375 15.75 3.375H2.25ZM16.875 7.875H1.125V13.5C1.125 14.1213 1.62868 14.625 2.25 14.625H15.75C16.3713 14.625 16.875 14.1213 16.875 13.5V7.875Z" fill="black"/>
<path d="M2.25 11.25C2.25 10.6287 2.75368 10.125 3.375 10.125H4.5C5.12132 10.125 5.625 10.6287 5.625 11.25V12.375C5.625 12.9963 5.12132 13.5 4.5 13.5H3.375C2.75368 13.5 2.25 12.9963 2.25 12.375V11.25Z" fill="black"/>
</svg>
