<svg width="18" height="14" viewBox="0 0 18 14" fill="none" xmlns="http://www.w3.org/2000/svg">
<path d="M0 2.5C0 1.25736 1.00736 0.25 2.25 0.25H15.75C16.9926 0.25 18 1.25736 18 2.5V11.5C18 12.7426 16.9926 13.75 15.75 13.75H2.25C1.00736 13.75 0 12.7426 0 11.5V2.5ZM2.25 1.375C1.62868 1.375 1.125 1.87868 1.125 2.5V3.625H16.875V2.5C16.875 1.87868 16.3713 1.375 15.75 1.375H2.25ZM16.875 5.875H1.125V11.5C1.125 12.1213 1.62868 12.625 2.25 12.625H15.75C16.3713 12.625 16.875 12.1213 16.875 11.5V5.875Z" fill="#2C2D2E"/>
<path d="M2.25 9.25C2.25 8.62868 2.75368 8.125 3.375 8.125H4.5C5.12132 8.125 5.625 8.62868 5.625 9.25V10.375C5.625 10.9963 5.12132 11.5 4.5 11.5H3.375C2.75368 11.5 2.25 10.9963 2.25 10.375V9.25Z" fill="#2C2D2E"/>
</svg>
