<svg width="92" height="92" viewBox="0 0 92 92" fill="none" xmlns="http://www.w3.org/2000/svg">
<path d="M72.8333 11.5H19.1667C14.9325 11.5 11.5 14.9325 11.5 19.1667V72.8333C11.5 77.0675 14.9325 80.5 19.1667 80.5H72.8333C77.0675 80.5 80.5 77.0675 80.5 72.8333V19.1667C80.5 14.9325 77.0675 11.5 72.8333 11.5Z" stroke="#D1D1D1" stroke-width="3" stroke-linecap="round" stroke-linejoin="round"/>
<path d="M32.582 38.333C35.7577 38.333 38.332 35.7586 38.332 32.583C38.332 29.4074 35.7577 26.833 32.582 26.833C29.4064 26.833 26.832 29.4074 26.832 32.583C26.832 35.7586 29.4064 38.333 32.582 38.333Z" stroke="#D1D1D1" stroke-width="3" stroke-linecap="round" stroke-linejoin="round"/>
<path d="M80.5013 57.4997L61.3346 38.333L19.168 80.4997" stroke="#D1D1D1" stroke-width="3" stroke-linecap="round" stroke-linejoin="round"/>
</svg>
