<svg width="247" height="62" viewBox="0 0 247 62" fill="none" xmlns="http://www.w3.org/2000/svg">
<g clip-path="url(#clip0_2551_5168)">
<rect y="9.30762" width="175" height="28" rx="14" transform="rotate(-3.04877 0 9.30762)" fill="white"/>
<path d="M13.0181 27.6416L12.4181 16.3776L17.8504 16.0883C19.0647 16.0236 20.0162 16.24 20.705 16.7374C21.4038 17.2236 21.7768 17.9087 21.8239 18.7928C21.8551 19.3786 21.7332 19.8978 21.4582 20.3504C21.1939 20.8025 20.8064 21.1489 20.2958 21.3897C20.9345 21.548 21.4364 21.847 21.8017 22.2869C22.1664 22.7161 22.3666 23.2662 22.4023 23.9373C22.4551 24.9279 22.14 25.7298 21.4569 26.343C20.784 26.945 19.8351 27.2786 18.6101 27.3438L13.0181 27.6416ZM15.4684 20.7015L17.5614 20.59C18.094 20.5617 18.4777 20.4451 18.7125 20.2403C18.9579 20.035 19.0701 19.7352 19.0491 19.3411C19.0281 18.947 18.885 18.6662 18.6197 18.4988C18.3645 18.3201 17.9706 18.2449 17.438 18.2733L15.345 18.3848L15.4684 20.7015ZM15.7152 25.3349L18.0958 25.2081C18.639 25.1792 19.0278 25.057 19.262 24.8416C19.5063 24.6149 19.6173 24.2939 19.5952 23.8785C19.5731 23.4631 19.4288 23.161 19.1624 22.9722C18.9066 22.7829 18.5071 22.7027 17.9639 22.7316L15.5833 22.8584L15.7152 25.3349ZM28.2083 27.0088C27.3242 27.0559 26.5432 26.932 25.8652 26.6369C25.1978 26.3413 24.6667 25.8943 24.2716 25.2958C23.8765 24.6973 23.6563 23.972 23.6109 23.1199C23.5655 22.2677 23.7078 21.5284 24.0376 20.902C24.3668 20.2649 24.8478 19.7693 25.4805 19.4152C26.1233 19.0498 26.8868 18.8436 27.7709 18.7965C28.2928 18.7687 28.8134 18.8157 29.3326 18.9376C29.8619 19.0483 30.2985 19.2227 30.6423 19.4607L29.9951 21.4499C29.74 21.2713 29.4444 21.1375 29.1085 21.0485C28.7828 20.9484 28.4761 20.906 28.1885 20.9213C27.6239 20.9513 27.1963 21.145 26.9056 21.5023C26.6148 21.8596 26.4859 22.3472 26.5188 22.965C26.5523 23.5934 26.7328 24.0752 27.0604 24.4102C27.3875 24.7346 27.8333 24.8818 28.3978 24.8517C28.6854 24.8364 28.9861 24.767 29.3 24.6434C29.624 24.5087 29.9033 24.3389 30.1381 24.1341L30.9929 26.0434C30.6763 26.3166 30.261 26.5417 29.747 26.7186C29.2325 26.8849 28.7196 26.9816 28.2083 27.0088ZM36.4998 26.5672C35.5411 26.6183 34.7015 26.4974 33.9809 26.2047C33.2704 25.9007 32.7123 25.4497 32.3066 24.8518C31.9009 24.2539 31.6756 23.5342 31.6308 22.6927C31.5883 21.8938 31.7263 21.1761 32.0449 20.5396C32.3741 19.9026 32.8386 19.3971 33.4382 19.0234C34.0479 18.6384 34.7522 18.4246 35.5511 18.3821C36.3393 18.3401 37.0298 18.4689 37.6226 18.7685C38.226 19.0675 38.6986 19.5176 39.0404 20.119C39.3923 20.7091 39.5901 21.4142 39.6338 22.2344L39.667 22.8575L34.3784 23.1392C34.5015 23.6454 34.7341 24.0015 35.0763 24.2076C35.4184 24.4137 35.8823 24.5011 36.4682 24.4699C36.8729 24.4484 37.2906 24.3674 37.721 24.227C38.1616 24.0753 38.5461 23.8732 38.8744 23.6208L39.677 25.4527C39.2875 25.7618 38.8044 26.0172 38.2277 26.2188C37.6509 26.4205 37.075 26.5366 36.4998 26.5672ZM35.7768 20.2127C35.3507 20.2354 35.006 20.3819 34.7427 20.6523C34.49 20.9221 34.3395 21.304 34.291 21.798L37.2628 21.6397C37.2042 21.1407 37.0458 20.7753 36.7878 20.5434C36.5398 20.3002 36.2028 20.19 35.7768 20.2127ZM47.6007 25.7997L47.3003 20.1597L44.8078 20.2925L44.6895 18.0716L52.5344 17.6538L52.6527 19.8746L50.1442 20.0082L50.4446 25.6483L47.6007 25.7997ZM54.0365 25.4569L53.6179 17.5961L58.3472 17.3442C59.4656 17.2846 60.2584 17.4293 60.7256 17.7783C61.2035 18.1267 61.4589 18.6098 61.4918 19.2276C61.5128 19.6217 61.4247 19.9736 61.2275 20.2832C61.0298 20.5821 60.7432 20.8163 60.3677 20.9859C60.9077 21.096 61.3036 21.3099 61.5555 21.6276C61.8175 21.9341 61.961 22.3217 61.986 22.7904C62.0223 23.4721 61.7796 24.0298 61.2579 24.4635C60.7363 24.8972 59.9482 25.1421 58.8937 25.1982L54.0365 25.4569ZM56.383 20.4771L58.1565 20.3826C58.4228 20.3685 58.6274 20.2988 58.7702 20.1737C58.9126 20.0379 58.9778 19.8582 58.9658 19.6345C58.9415 19.1765 58.647 18.9625 58.0825 18.9926L56.309 19.0871L56.383 20.4771ZM56.5532 23.6726L58.4705 23.5705C59.1415 23.5347 59.4632 23.2559 59.4354 22.734C59.4081 22.2227 59.059 21.9849 58.3879 22.0206L56.4707 22.1228L56.5532 23.6726ZM67.5268 24.9147C66.6534 24.9612 65.883 24.8367 65.2157 24.5411C64.5483 24.2455 64.0171 23.7984 63.6221 23.1999C63.227 22.6014 63.0071 21.8814 62.9623 21.04C62.9169 20.1878 63.0591 19.4486 63.3889 18.8221C63.7182 18.1851 64.1989 17.6841 64.831 17.3193C65.4632 16.9545 66.216 16.7488 67.0894 16.7023C67.9628 16.6558 68.7332 16.7803 69.4005 17.0759C70.0679 17.3715 70.5937 17.8189 70.9781 18.4179C71.3726 19.0058 71.5926 19.7258 71.638 20.5779C71.6828 21.4194 71.5406 22.1586 71.2113 22.7957C70.8927 23.4322 70.4173 23.9329 69.7852 24.2977C69.153 24.6625 68.4002 24.8682 67.5268 24.9147ZM67.4153 22.8217C67.8414 22.799 68.1844 22.6205 68.4443 22.2862C68.7042 21.9519 68.8155 21.4332 68.778 20.7302C68.74 20.0166 68.5743 19.5127 68.2809 19.2185C67.9869 18.9137 67.6269 18.7727 67.2009 18.7954C66.7642 18.8186 66.4158 18.9974 66.1559 19.3317C65.8954 19.6553 65.7842 20.174 65.8222 20.8876C65.8596 21.5907 66.0253 22.0946 66.3193 22.3993C66.6133 22.7041 66.9786 22.8449 67.4153 22.8217ZM73.4153 24.4248L72.9966 16.5639L75.553 16.4278L75.7794 20.6778L78.7804 16.2559L81.1131 16.1317L81.5318 23.9925L78.9754 24.1287L78.7482 19.8627L75.748 24.3006L73.4153 24.4248ZM88.098 23.9152L87.1791 21.7049C87.7795 21.5448 88.2006 21.2286 88.4425 20.7564C88.6838 20.2735 88.7801 19.5741 88.7313 18.6581L88.5756 15.7342L95.6535 15.3572L96.0722 23.2181L93.2282 23.3695L92.9253 17.6816L91.2796 17.7693L91.3247 18.6161C91.4053 20.1286 91.1812 21.3369 90.6526 22.2409C90.1346 23.1444 89.283 23.7025 88.098 23.9152ZM106.036 22.8636C104.917 22.9232 103.971 22.7012 103.196 22.1977C102.432 21.683 101.923 20.9517 101.67 20.0038L100.615 20.06L100.77 22.9679L97.9899 23.1159L97.5712 15.2551L100.351 15.107L100.498 17.8711L101.569 17.8141C101.743 16.8755 102.184 16.131 102.892 15.5805C103.599 15.0195 104.501 14.7097 105.598 14.6513C106.472 14.6048 107.242 14.7293 107.91 15.0249C108.577 15.3205 109.108 15.7675 109.503 16.366C109.898 16.9539 110.118 17.6739 110.163 18.526C110.208 19.3675 110.066 20.1068 109.736 20.7438C109.407 21.3809 108.926 21.8819 108.294 22.2467C107.662 22.6115 106.909 22.8171 106.036 22.8636ZM105.924 20.7706C106.361 20.7474 106.709 20.5686 106.969 20.2343C107.229 19.9 107.34 19.3813 107.303 18.6783C107.265 17.9647 107.099 17.4608 106.806 17.1666C106.512 16.8618 106.147 16.7211 105.71 16.7443C105.273 16.7676 104.925 16.9464 104.665 17.2807C104.404 17.6043 104.293 18.123 104.331 18.8366C104.369 19.5396 104.534 20.0435 104.828 20.3483C105.122 20.6531 105.488 20.7939 105.924 20.7706ZM116.054 22.33C114.68 22.4032 113.573 22.0723 112.733 21.3373C111.893 20.6023 111.431 19.4519 111.347 17.8861L111.289 16.7837C111.202 15.1646 111.536 13.9078 112.29 13.0131C113.043 12.1184 114.184 11.4755 115.712 11.0843L118.382 10.3813L119.283 12.5445L116.058 13.3732C115.33 13.5508 114.781 13.8578 114.409 14.2942C114.047 14.73 113.885 15.2941 113.922 15.9865L113.928 16.0983C114.128 15.6497 114.44 15.2753 114.862 14.9751C115.294 14.6743 115.851 14.5058 116.533 14.4695C117.151 14.4366 117.718 14.5612 118.235 14.8435C118.762 15.1145 119.185 15.5246 119.503 16.0738C119.83 16.6118 120.015 17.2749 120.057 18.0631C120.101 18.8939 119.964 19.6223 119.645 20.2481C119.325 20.8634 118.854 21.3531 118.233 21.7173C117.622 22.081 116.896 22.2852 116.054 22.33ZM115.831 20.243C116.811 20.1908 117.269 19.5629 117.205 18.3592C117.173 17.7628 117.021 17.3169 116.749 17.0216C116.477 16.7263 116.107 16.5911 115.638 16.6161C115.159 16.6416 114.799 16.8157 114.56 17.1382C114.321 17.4607 114.217 17.9095 114.247 18.4847C114.313 19.7096 114.84 20.2957 115.831 20.243ZM121.831 21.8461L121.412 13.9853L123.969 13.8491L124.195 18.0991L127.196 13.6772L129.529 13.553L129.948 21.4138L127.391 21.55L127.164 17.284L124.164 21.7219L121.831 21.8461ZM131.864 21.3118L131.445 13.4509L133.778 13.3267L136.431 17.1109L138.651 13.0671L140.968 12.9437L141.386 20.8046L138.894 20.9373L138.685 17.0229L137.195 19.73L135.917 19.7981L134.148 17.2646L134.356 21.179L131.864 21.3118ZM143.301 20.7026L142.882 12.8418L145.726 12.6903L145.852 15.0549L147.561 14.9639C149.745 14.8476 150.884 15.6842 150.98 17.4736C151.009 18.0275 150.897 18.5249 150.643 18.9657C150.388 19.3958 150.022 19.7465 149.545 20.0175C149.068 20.278 148.504 20.4255 147.854 20.4601L143.301 20.7026ZM151.817 20.2491L151.398 12.3882L154.242 12.2367L154.661 20.0976L151.817 20.2491ZM146.049 18.7617L147.232 18.6987C147.604 18.6789 147.893 18.5834 148.098 18.4123C148.312 18.2299 148.411 17.9736 148.393 17.6434C148.36 17.0257 147.939 16.7383 147.13 16.7814L145.947 16.8444L146.049 18.7617ZM160.886 19.9423C159.927 19.9933 159.088 19.8725 158.367 19.5797C157.657 19.2757 157.099 18.8248 156.693 18.2268C156.287 17.6289 156.062 16.9092 156.017 16.0677C155.974 15.2689 156.112 14.5512 156.431 13.9147C156.76 13.2776 157.225 12.7722 157.824 12.3984C158.434 12.0134 159.138 11.7997 159.937 11.7571C160.726 11.7151 161.416 11.8439 162.009 12.1435C162.612 12.4425 163.085 12.8927 163.427 13.494C163.778 14.0841 163.976 14.7893 164.02 15.6094L164.053 16.2326L158.765 16.5142C158.888 17.0204 159.12 17.3765 159.462 17.5826C159.805 17.7887 160.269 17.8762 160.854 17.845C161.259 17.8234 161.677 17.7424 162.107 17.602C162.548 17.4503 162.932 17.2483 163.261 16.9958L164.063 18.8277C163.674 19.1368 163.191 19.3922 162.614 19.5939C162.037 19.7955 161.461 19.9116 160.886 19.9423ZM160.163 13.5877C159.737 13.6104 159.392 13.757 159.129 14.0273C158.876 14.2972 158.726 14.679 158.677 15.173L161.649 15.0147C161.59 14.5158 161.432 14.1504 161.174 13.9184C160.926 13.6753 160.589 13.565 160.163 13.5877Z" fill="#4A8FFF"/>
</g>
<rect x="28.209" y="29.1289" width="218" height="28" rx="14" transform="rotate(1.17649 28.209 29.1289)" fill="#4A8FFF"/>
<path d="M39.7758 48.3708L39.9374 40.5005L42.7848 40.559L42.7277 43.3424L43.4955 43.3581L45.4723 40.6142L48.4796 40.6759L45.9915 44.1616C46.202 44.3046 46.3851 44.479 46.5409 44.685C46.7076 44.8804 46.8525 45.0968 46.9757 45.334L48.606 48.5522L45.5826 48.4901L44.4288 46.2259C44.2848 45.9669 44.1391 45.7879 43.9918 45.6888C43.8444 45.5898 43.6535 45.5378 43.4188 45.533L42.683 45.5179L42.6232 48.4293L39.7758 48.3708ZM49.7887 51.4571L51.4426 48.0663L48.3778 40.6738L51.3692 40.7353L53.0051 45.2338L54.8884 40.8075L57.7038 40.8653L52.6681 51.5162L49.7887 51.4571ZM58.2444 51.6307L58.4652 40.881L61.2326 40.9378L61.2106 42.0096C61.4317 41.6301 61.7632 41.3328 62.2051 41.1178C62.6469 40.9029 63.1291 40.8007 63.6517 40.8115C64.3235 40.8253 64.912 41.0027 65.4171 41.3438C65.9329 41.6852 66.3284 42.168 66.6036 42.7925C66.8897 43.4065 67.024 44.1401 67.0065 44.9932C66.9892 45.8357 66.8303 46.5633 66.5296 47.1759C66.229 47.7885 65.814 48.2548 65.2846 48.5746C64.7659 48.8947 64.1653 49.0477 63.4828 49.0337C62.9923 49.0237 62.5358 48.9129 62.1134 48.7015C61.7016 48.4904 61.3873 48.2119 61.1703 47.866L61.0918 51.6892L58.2444 51.6307ZM62.63 46.9198C63.0566 46.9285 63.4118 46.7758 63.6957 46.4616C63.9795 46.1473 64.1287 45.6383 64.1431 44.9344C64.1578 44.2199 64.0297 43.7052 63.7588 43.3902C63.4881 43.0646 63.1394 42.8974 62.7128 42.8886C62.2756 42.8796 61.9151 43.0323 61.6312 43.3465C61.3476 43.6501 61.1984 44.1591 61.1838 44.8736C61.1693 45.5775 61.2974 46.0922 61.5681 46.4179C61.8388 46.7435 62.1928 46.9108 62.63 46.9198ZM72.4841 49.2186C71.6096 49.2006 70.8505 49.0197 70.2067 48.6757C69.563 48.3318 69.0662 47.8468 68.7163 47.2208C68.3664 46.5948 68.2001 45.8606 68.2174 45.0181C68.2349 44.1649 68.4312 43.4381 68.8063 42.8377C69.1816 42.2266 69.6979 41.7625 70.3552 41.4452C71.0125 41.128 71.7784 40.9784 72.6529 40.9963C73.5274 41.0143 74.2865 41.1952 74.9302 41.5392C75.574 41.8831 76.0655 42.368 76.4047 42.9938C76.7548 43.6091 76.9211 44.3433 76.9036 45.1965C76.8863 46.039 76.69 46.7658 76.3147 47.3768C75.95 47.9882 75.4391 48.4524 74.7818 48.7697C74.1244 49.0869 73.3585 49.2365 72.4841 49.2186ZM72.5271 47.123C72.9537 47.1318 73.3089 46.979 73.5927 46.6648C73.8766 46.3506 74.0257 45.8415 74.0402 45.1377C74.0548 44.4232 73.9267 43.9084 73.6558 43.5935C73.3851 43.2678 73.0365 43.1006 72.6099 43.0919C72.1726 43.0829 71.8121 43.2355 71.5282 43.5498C71.2446 43.8533 71.0955 44.3624 71.0808 45.0769C71.0663 45.7807 71.1945 46.2955 71.4652 46.6211C71.7359 46.9467 72.0898 47.114 72.5271 47.123ZM78.3495 52.0436L78.5703 41.2939L81.3377 41.3507L81.3157 42.4225C81.5369 42.0429 81.8684 41.7457 82.3102 41.5307C82.7521 41.3157 83.2343 41.2136 83.7568 41.2244C84.4287 41.2381 85.0172 41.4156 85.5223 41.7567C86.038 42.098 86.4335 42.5809 86.7088 43.2054C86.9949 43.8194 87.1292 44.553 87.1117 45.4061C87.0944 46.2486 86.9354 46.9762 86.6347 47.5888C86.3341 48.2014 85.9191 48.6677 85.3898 48.9875C84.8711 49.3076 84.2705 49.4606 83.588 49.4466C83.0974 49.4365 82.6409 49.3258 82.2185 49.1144C81.8067 48.9033 81.4924 48.6248 81.2754 48.2789L81.1969 52.1021L78.3495 52.0436ZM82.7352 47.3327C83.1618 47.3414 83.517 47.1887 83.8008 46.8744C84.0847 46.5602 84.2338 46.0512 84.2483 45.3473C84.2629 44.6328 84.1348 44.1181 83.8639 43.8031C83.5932 43.4775 83.2445 43.3103 82.818 43.3015C82.3807 43.2925 82.0202 43.4452 81.7363 43.7594C81.4527 44.063 81.3036 44.572 81.2889 45.2865C81.2744 45.9904 81.4026 46.5051 81.6733 46.8308C81.944 47.1564 82.2979 47.3237 82.7352 47.3327ZM90.2733 49.4079L90.3893 43.7611L87.8938 43.7098L87.9394 41.4863L95.7938 41.6476L95.7481 43.8711L93.2367 43.8195L93.1207 49.4664L90.2733 49.4079ZM96.7169 49.5402L96.8786 41.6699L99.726 41.7283L99.6773 44.0958L101.389 44.131C103.575 44.1759 104.65 45.0941 104.613 46.8858C104.602 47.4403 104.453 47.928 104.167 48.3489C103.881 48.7591 103.49 49.0819 102.995 49.3171C102.499 49.5416 101.926 49.6472 101.276 49.6338L96.7169 49.5402ZM105.243 49.7153L105.405 41.845L108.252 41.9034L108.091 49.7738L105.243 49.7153ZM99.6011 47.8071L100.785 47.8314C101.158 47.839 101.453 47.7651 101.67 47.6095C101.897 47.4435 102.014 47.1951 102.021 46.8645C102.034 46.246 101.635 45.9284 100.824 45.9118L99.6405 45.8875L99.6011 47.8071ZM114.588 49.9072L114.75 42.0369L119.485 42.1341C120.605 42.1571 121.385 42.3598 121.825 42.7423C122.276 43.125 122.495 43.6256 122.482 44.2441C122.474 44.6387 122.36 44.9831 122.141 45.2773C121.922 45.5609 121.619 45.7734 121.232 45.9148C121.762 46.0644 122.141 46.3069 122.369 46.6423C122.608 46.9673 122.722 47.3644 122.712 47.8336C122.698 48.5161 122.415 49.0544 121.863 49.4485C121.311 49.8426 120.507 50.0288 119.451 50.0071L114.588 49.9072ZM117.295 45.1138L119.071 45.1503C119.337 45.1557 119.547 45.1013 119.698 44.9871C119.85 44.8622 119.928 44.6878 119.933 44.4638C119.942 44.0052 119.665 43.7702 119.099 43.7585L117.324 43.7221L117.295 45.1138ZM117.229 48.3131L119.149 48.3525C119.821 48.3663 120.162 48.112 120.173 47.5894C120.183 47.0775 119.853 46.8147 119.181 46.8009L117.261 46.7614L117.229 48.3131ZM132.659 50.4544C131.784 50.4364 131.025 50.2555 130.382 49.9115C129.738 49.5675 129.241 49.0826 128.891 48.4566C128.541 47.8306 128.375 47.0964 128.392 46.2539C128.41 45.4007 128.606 44.6739 128.981 44.0735C129.356 43.4624 129.873 42.9983 130.53 42.681C131.187 42.3638 131.953 42.2141 132.828 42.2321C133.702 42.2501 134.461 42.431 135.105 42.775C135.749 43.1189 136.24 43.6038 136.579 44.2296C136.93 44.8449 137.096 45.5791 137.078 46.4323C137.061 47.2748 136.865 48.0015 136.489 48.6126C136.125 49.2239 135.614 49.6882 134.957 50.0054C134.299 50.3227 133.533 50.4723 132.659 50.4544ZM132.702 48.3588C133.128 48.3676 133.484 48.2148 133.768 47.9006C134.051 47.5864 134.201 47.0773 134.215 46.3735C134.23 45.6589 134.102 45.1442 133.831 44.8292C133.56 44.5036 133.211 44.3364 132.785 44.3277C132.347 44.3187 131.987 44.4713 131.703 44.7855C131.419 45.0891 131.27 45.5982 131.256 46.3127C131.241 47.0165 131.369 47.5313 131.64 47.8569C131.911 48.1825 132.265 48.3498 132.702 48.3588ZM137.965 52.4677L138.052 48.2446L139.043 48.265C139.287 47.8432 139.462 47.3614 139.569 46.8195C139.687 46.2778 139.755 45.5644 139.773 44.6792L139.817 42.5517L146.615 42.6913L146.498 48.4181L147.826 48.4453L147.739 52.6685L145.339 52.6192L145.382 50.5396L140.407 50.4375L140.364 52.517L137.965 52.4677ZM141.523 48.3319L143.842 48.3795L143.916 44.7803L142.156 44.7442L142.141 45.496C142.13 46.0079 142.072 46.5188 141.965 47.0287C141.859 47.5386 141.711 47.973 141.523 48.3319ZM148.956 50.613L149.118 42.7427L151.965 42.8012L151.908 45.5686L154.42 45.6201L154.476 42.8527L157.324 42.9112L157.162 50.7815L154.315 50.7231L154.375 47.8117L151.863 47.7601L151.803 50.6715L148.956 50.613ZM163.074 51.079C162.2 51.061 161.441 50.8801 160.797 50.5361C160.153 50.1922 159.656 49.7072 159.307 49.0812C158.957 48.4552 158.79 47.721 158.808 46.8785C158.825 46.0254 159.021 45.2986 159.397 44.6981C159.772 44.087 160.288 43.6229 160.945 43.3056C161.603 42.9884 162.369 42.8388 163.243 42.8567C164.118 42.8747 164.877 43.0556 165.521 43.3996C166.164 43.7436 166.656 44.2284 166.995 44.8542C167.345 45.4695 167.511 46.2037 167.494 47.0569C167.477 47.8994 167.28 48.6262 166.905 49.2373C166.54 49.8486 166.029 50.3128 165.372 50.6301C164.715 50.9473 163.949 51.097 163.074 51.079ZM163.117 48.9834C163.544 48.9922 163.899 48.8395 164.183 48.5252C164.467 48.211 164.616 47.7019 164.63 46.9981C164.645 46.2836 164.517 45.7688 164.246 45.4539C163.975 45.1282 163.627 44.961 163.2 44.9523C162.763 44.9433 162.402 45.0959 162.119 45.4102C161.835 45.7138 161.686 46.2228 161.671 46.9373C161.657 47.6412 161.785 48.1559 162.055 48.4815C162.326 48.8072 162.68 48.9745 163.117 48.9834ZM168.983 51.0243L169.145 43.154L171.48 43.2019L173.847 47.1714L176.359 43.3021L178.679 43.3498L178.517 51.2201L176.021 51.1688L176.102 47.2497L174.416 49.8396L173.137 49.8133L171.559 47.1564L171.478 51.0756L168.983 51.0243ZM185.011 51.3535L185.172 43.4831L187.508 43.5311L189.875 47.5005L192.387 43.6313L194.706 43.6789L194.545 51.5493L192.049 51.498L192.13 47.5788L190.444 50.1688L189.165 50.1425L187.587 47.4855L187.506 51.4047L185.011 51.3535ZM200.761 51.853C199.801 51.8332 198.973 51.6509 198.276 51.3058C197.59 50.9503 197.066 50.4595 196.706 49.8333C196.345 49.2071 196.173 48.4727 196.191 47.6302C196.207 46.8304 196.398 46.1248 196.762 45.5135C197.138 44.9024 197.638 44.4326 198.264 44.104C198.9 43.765 199.618 43.6037 200.418 43.6202C201.207 43.6364 201.886 43.8157 202.455 44.1581C203.035 44.5008 203.473 44.9845 203.77 45.6094C204.077 46.2239 204.223 46.9417 204.206 47.7628L204.193 48.3867L198.898 48.2779C198.983 48.7918 199.189 49.1641 199.515 49.3949C199.841 49.6256 200.297 49.747 200.884 49.759C201.289 49.7674 201.712 49.7174 202.151 49.609C202.602 49.4903 203 49.3171 203.346 49.0895L204.012 50.9755C203.601 51.2551 203.1 51.4742 202.51 51.6328C201.92 51.7914 201.337 51.8648 200.761 51.853ZM200.508 45.4624C200.082 45.4537 199.727 45.5744 199.444 45.8246C199.173 46.0751 198.994 46.4449 198.91 46.9339L201.885 46.995C201.863 46.4931 201.732 46.117 201.492 45.8667C201.263 45.6059 200.935 45.4712 200.508 45.4624ZM209.659 52.0357C208.774 52.0175 208.004 51.8363 207.35 51.4922C206.706 51.1482 206.209 50.6632 205.859 50.0372C205.509 49.4113 205.343 48.6717 205.361 47.8185C205.378 46.9654 205.575 46.2386 205.95 45.6382C206.325 45.0271 206.841 44.5683 207.498 44.2617C208.166 43.9447 208.943 43.7952 209.828 43.8134C210.35 43.8242 210.866 43.9094 211.375 44.0692C211.895 44.2186 212.317 44.4247 212.643 44.6874L211.851 46.6235C211.609 46.4265 211.324 46.2713 210.996 46.1579C210.678 46.034 210.376 45.9691 210.088 45.9632C209.523 45.9516 209.082 46.1133 208.766 46.4482C208.449 46.7831 208.285 47.2598 208.272 47.8783C208.259 48.5075 208.404 49.0013 208.706 49.3595C209.008 49.7072 209.442 49.8868 210.007 49.8984C210.295 49.9043 210.6 49.8572 210.922 49.7571C211.255 49.6466 211.546 49.4979 211.795 49.311L212.507 51.278C212.171 51.5272 211.741 51.721 211.215 51.8596C210.69 51.9875 210.171 52.0462 209.659 52.0357ZM215.341 51.9763L215.457 46.3295L212.961 46.2783L213.007 44.0547L220.861 44.216L220.816 46.4396L218.304 46.388L218.188 52.0348L215.341 51.9763ZM225.959 52.3704C224.999 52.3507 224.171 52.1683 223.474 51.8233C222.787 51.4678 222.264 50.9769 221.903 50.3507C221.543 49.7245 221.371 48.9902 221.389 48.1477C221.405 47.3479 221.596 46.6423 221.96 46.031C222.335 45.4199 222.836 44.9501 223.461 44.6215C224.098 44.2825 224.816 44.1212 225.616 44.1376C226.405 44.1539 227.084 44.3332 227.653 44.6756C228.233 45.0182 228.671 45.502 228.968 46.1269C229.275 46.7413 229.42 47.4591 229.404 48.2803L229.391 48.9042L224.096 48.7954C224.181 49.3093 224.387 49.6816 224.713 49.9123C225.039 50.1431 225.495 50.2645 226.082 50.2765C226.487 50.2848 226.91 50.2348 227.349 50.1265C227.8 50.0077 228.198 49.8345 228.544 49.6069L229.21 51.493C228.798 51.7726 228.298 51.9917 227.708 52.1503C227.118 52.3089 226.535 52.3823 225.959 52.3704ZM225.706 45.9799C225.279 45.9711 224.925 46.0919 224.642 46.3421C224.37 46.5926 224.192 46.9623 224.107 47.4514L227.083 47.5125C227.061 47.0106 226.93 46.6345 226.69 46.3842C226.461 46.1234 226.133 45.9887 225.706 45.9799ZM231.259 48.4944L230.533 41.006L234.02 41.0776L232.971 48.5296L231.259 48.4944ZM230.557 52.2888L230.617 49.3774L233.576 49.4382L233.517 52.3496L230.557 52.2888Z" fill="white"/>
<defs>
<clipPath id="clip0_2551_5168">
<rect y="9.30762" width="175" height="28" rx="14" transform="rotate(-3.04877 0 9.30762)" fill="white"/>
</clipPath>
</defs>
</svg>
