<svg width="26" height="26" viewBox="0 0 26 26" fill="none" xmlns="http://www.w3.org/2000/svg">
<path d="M8 19.0146C8 19.0146 9.47727 14.0133 10.0682 13.0122C10.6591 12.0111 11.3783 13.6785 11.9692 13.0122C12.5601 12.3459 14.2045 7.34434 14.7955 7.01019C15.3864 6.67605 17.4545 14.6692 18.0455 14.3363C18.6364 14.0034 19.2273 13.0122 19.8182 15.0028C20.4091 16.9935 21 19.0146 21 19.0146" stroke="#2C2D2E" stroke-width="1.5" stroke-linecap="round"/>
<path d="M3.78787 18.7121C3.90503 18.8293 4.09497 18.8293 4.21213 18.7121L6.12132 16.8029C6.23848 16.6858 6.23848 16.4958 6.12132 16.3787C6.00416 16.2615 5.81421 16.2615 5.69706 16.3787L4 18.0757L2.30294 16.3787C2.18579 16.2615 1.99584 16.2615 1.87868 16.3787C1.76152 16.4958 1.76152 16.6858 1.87868 16.8029L3.78787 18.7121ZM4.21213 7.28787C4.09497 7.17071 3.90503 7.17071 3.78787 7.28787L1.87868 9.19706C1.76152 9.31421 1.76152 9.50416 1.87868 9.62132C1.99584 9.73848 2.18579 9.73848 2.30294 9.62132L4 7.92426L5.69706 9.62132C5.81421 9.73848 6.00416 9.73848 6.12132 9.62132C6.23848 9.50416 6.23848 9.31421 6.12132 9.19706L4.21213 7.28787ZM4.3 18.5L4.3 7.5H3.7L3.7 18.5H4.3Z" fill="black"/>
<path d="M7 6L1 6" stroke="#2C2D2E" stroke-width="1.5" stroke-linecap="round"/>
<path d="M22 20L1 20" stroke="#2C2D2E" stroke-width="1.5" stroke-linecap="round"/>
</svg>
