<svg width="18" height="18" viewBox="0 0 18 18" fill="none" xmlns="http://www.w3.org/2000/svg">
<g id="basil:edit-outline">
<path id="Vector" fill-rule="evenodd" clip-rule="evenodd" d="M16.0909 4.06199C16.1622 4.17015 16.1939 4.29958 16.1808 4.42843C16.1677 4.55729 16.1105 4.67767 16.0189 4.76924L9.12418 11.6632C9.05364 11.7337 8.96564 11.7842 8.86918 11.8095L5.99743 12.5595C5.9025 12.5843 5.80275 12.5838 5.70807 12.558C5.6134 12.5323 5.52709 12.4823 5.45772 12.4129C5.38835 12.3436 5.33833 12.2573 5.31262 12.1626C5.28692 12.0679 5.28642 11.9682 5.31118 11.8732L6.06118 9.00224C6.08307 8.91606 6.12437 8.83602 6.18193 8.76824L13.1022 1.85249C13.2076 1.74716 13.3506 1.68799 13.4997 1.68799C13.6487 1.68799 13.7917 1.74716 13.8972 1.85249L16.0189 3.97349C16.0458 4.0005 16.07 4.03015 16.0909 4.06199ZM14.8257 4.37099L13.4997 3.04574L7.11118 9.43424L6.64243 11.229L8.43718 10.7602L14.8257 4.37099Z" fill="#005FF9"/>
<path id="Vector_2" d="M14.7302 12.8702C14.9352 11.1181 15.0006 9.35257 14.9259 7.59016C14.9243 7.54864 14.9313 7.50723 14.9464 7.46851C14.9615 7.4298 14.9844 7.39462 15.0137 7.36516L15.7517 6.62716C15.7718 6.60688 15.7974 6.59285 15.8254 6.58677C15.8533 6.58068 15.8824 6.5828 15.9092 6.59286C15.936 6.60292 15.9593 6.62049 15.9763 6.64348C15.9933 6.66646 16.0034 6.69387 16.0052 6.72241C16.1441 8.81584 16.0914 10.9176 15.8477 13.0014C15.6707 14.5179 14.4527 15.7067 12.9429 15.8754C10.3219 16.1657 7.67692 16.1657 5.05593 15.8754C3.54693 15.7067 2.32818 14.5179 2.15118 13.0014C1.84023 10.343 1.84023 7.65735 2.15118 4.99891C2.32818 3.48241 3.54618 2.29366 5.05593 2.12491C7.04521 1.90432 9.04948 1.85088 11.0477 1.96516C11.0763 1.96721 11.1037 1.97742 11.1267 1.99457C11.1496 2.01172 11.1672 2.03509 11.1773 2.06192C11.1874 2.08876 11.1896 2.11792 11.1837 2.14597C11.1777 2.17401 11.1638 2.19976 11.1437 2.22016L10.3989 2.96416C10.3698 2.99322 10.3349 3.016 10.2966 3.03109C10.2583 3.04618 10.2173 3.05327 10.1762 3.05191C8.50875 2.99523 6.8394 3.05914 5.18118 3.24316C4.69664 3.29679 4.24432 3.5122 3.8973 3.8546C3.55027 4.19699 3.32881 4.64638 3.26868 5.13016C2.96797 7.7014 2.96797 10.2989 3.26868 12.8702C3.32881 13.3539 3.55027 13.8033 3.8973 14.1457C4.24432 14.4881 4.69664 14.7035 5.18118 14.7572C7.69743 15.0384 10.3014 15.0384 12.8184 14.7572C13.303 14.7035 13.7553 14.4881 14.1023 14.1457C14.4493 13.8033 14.6701 13.3539 14.7302 12.8702Z" fill="#005FF9"/>
</g>
</svg>
