<svg width="18" height="18" viewBox="0 0 18 18" fill="none" xmlns="http://www.w3.org/2000/svg">
<path fill-rule="evenodd" clip-rule="evenodd" d="M0 9C0 4.02931 4.02931 0 9 0C13.9707 0 18 4.02931 18 9C18 13.9707 13.9707 18 9 18C4.02931 18 0 13.9707 0 9ZM9 1.63636C4.93305 1.63636 1.63636 4.93305 1.63636 9C1.63636 13.0669 4.93305 16.3636 9 16.3636C13.0669 16.3636 16.3636 13.0669 16.3636 9C16.3636 4.93305 13.0669 1.63636 9 1.63636Z" fill="#005FF9"/>
<path fill-rule="evenodd" clip-rule="evenodd" d="M12.411 6.3464C12.7468 6.64869 12.7741 7.16602 12.4718 7.50189L8.78997 11.5928C8.64433 11.7546 8.4402 11.8517 8.22276 11.8626C8.00532 11.8735 7.7925 11.7973 7.63142 11.6508L5.58596 9.79111C5.25163 9.48713 5.22702 8.96967 5.531 8.63533C5.83498 8.30099 6.35244 8.27638 6.68677 8.58036L8.12379 9.88689L11.2555 6.40722C11.5578 6.07135 12.0751 6.04412 12.411 6.3464Z" fill="#005FF9"/>
</svg>
