<svg width="18" height="18" viewBox="0 0 18 18" fill="none" xmlns="http://www.w3.org/2000/svg">
<path fill-rule="evenodd" clip-rule="evenodd" d="M2.63595 2.63595C6.15055 -0.87865 11.8495 -0.87865 15.3641 2.63595C18.8787 6.15055 18.8787 11.8495 15.3641 15.3641C11.8495 18.8787 6.15055 18.8787 2.63595 15.3641C-0.87865 11.8495 -0.87865 6.15055 2.63595 2.63595ZM14.2069 3.79306C11.3314 0.917514 6.66861 0.917514 3.79306 3.79306C0.917514 6.66861 0.917514 11.3314 3.79306 14.2069C6.66861 17.0825 11.3314 17.0825 14.2069 14.2069C17.0825 11.3314 17.0825 6.66861 14.2069 3.79306ZM6.10763 6.1067C6.42718 5.78721 6.94524 5.78725 7.26474 6.10681L9 7.84238L10.7353 6.10681C11.0548 5.78725 11.5728 5.78721 11.8924 6.1067C12.2119 6.4262 12.212 6.94426 11.8925 7.26381L10.157 8.99959L11.8925 10.7354C12.212 11.0549 12.2119 11.573 11.8924 11.8925C11.5728 12.212 11.0548 12.2119 10.7353 11.8924L9 10.1568L7.26474 11.8924C6.94524 12.2119 6.42718 12.212 6.10763 11.8925C5.78807 11.573 5.78802 11.0549 6.10752 10.7354L7.84299 8.99959L6.10752 7.26381C5.78802 6.94426 5.78807 6.4262 6.10763 6.1067Z" fill="#D9D9D9"/>
</svg>
