<svg width="20" height="20" viewBox="0 0 20 20" fill="none" xmlns="http://www.w3.org/2000/svg">
<path d="M10.0013 1.66406C6.7763 1.66406 4.16797 4.2724 4.16797 7.4974C4.16797 11.8724 10.0013 18.3307 10.0013 18.3307C10.0013 18.3307 15.8346 11.8724 15.8346 7.4974C15.8346 4.2724 13.2263 1.66406 10.0013 1.66406ZM5.83464 7.4974C5.83464 5.1974 7.7013 3.33073 10.0013 3.33073C12.3013 3.33073 14.168 5.1974 14.168 7.4974C14.168 9.8974 11.768 13.4891 10.0013 15.7307C8.26797 13.5057 5.83464 9.8724 5.83464 7.4974Z" fill="#2C2D2E"/>
<path d="M10.0013 9.58073C11.1519 9.58073 12.0846 8.64799 12.0846 7.4974C12.0846 6.3468 11.1519 5.41406 10.0013 5.41406C8.85071 5.41406 7.91797 6.3468 7.91797 7.4974C7.91797 8.64799 8.85071 9.58073 10.0013 9.58073Z" fill="#2C2D2E"/>
</svg>
