<svg width="14" height="18" viewBox="0 0 14 18" fill="none" xmlns="http://www.w3.org/2000/svg">
<path fill-rule="evenodd" clip-rule="evenodd" d="M4.85697 1.95672C5.5364 1.65519 6.2646 1.5 7 1.5C7.7354 1.5 8.4636 1.65519 9.14303 1.95672C9.82245 2.25825 10.4398 2.7002 10.9598 3.25735C11.4798 3.8145 11.8923 4.47593 12.1737 5.20389C12.4552 5.93184 12.6 6.71205 12.6 7.49998C12.6 9.82352 11.189 12.0782 9.64183 13.8279C8.88257 14.6866 8.12093 15.3896 7.54833 15.8781C7.33522 16.0599 7.14908 16.2114 7 16.3294C6.85092 16.2114 6.66478 16.0599 6.45167 15.8781C5.87907 15.3896 5.11743 14.6866 4.35817 13.8279C2.81102 12.0782 1.4 9.82352 1.4 7.49998C1.4 6.71205 1.54485 5.93184 1.82627 5.20389C2.1077 4.47593 2.52019 3.8145 3.0402 3.25735C3.56021 2.7002 4.17755 2.25825 4.85697 1.95672ZM6.61133 17.8737C6.61153 17.8739 6.61171 17.874 7 17.25L7.38829 17.874C7.15316 18.0419 6.84646 18.0417 6.61133 17.8737ZM6.61133 17.8737L7 17.25C7.38829 17.874 7.38899 17.8735 7.38919 17.8733L7.39067 17.8723L7.39533 17.8689L7.41138 17.8573C7.42501 17.8474 7.44445 17.8331 7.46931 17.8147C7.51903 17.7778 7.59048 17.724 7.68055 17.6544C7.86062 17.515 8.11555 17.3116 8.42042 17.0515C9.02907 16.5322 9.84243 15.7821 10.6582 14.8595C12.261 13.0468 14 10.4264 14 7.49998C14 6.51507 13.8189 5.5398 13.4672 4.62986C13.1154 3.71992 12.5998 2.89313 11.9497 2.19669C11.2997 1.50026 10.5281 0.947811 9.67878 0.570902C8.8295 0.193993 7.91925 0 7 0C6.08075 0 5.1705 0.193993 4.32122 0.570902C3.47194 0.947811 2.70026 1.50026 2.05025 2.19669C1.40024 2.89313 0.884626 3.71992 0.532843 4.62986C0.18106 5.5398 0 6.51507 0 7.49998C0 10.4264 1.73898 13.0468 3.34183 14.8595C4.15757 15.7821 4.97093 16.5322 5.57958 17.0515C5.88445 17.3116 6.13938 17.515 6.31945 17.6544C6.40952 17.724 6.48097 17.7778 6.53069 17.8147C6.55555 17.8331 6.57499 17.8474 6.58862 17.8573L6.60467 17.8689L6.60933 17.8723L6.61133 17.8737ZM7 4.49999C6.25739 4.49999 5.5452 4.81606 5.0201 5.37867C4.495 5.94127 4.2 6.70433 4.2 7.49998C4.2 8.29563 4.495 9.05869 5.0201 9.6213C5.5452 10.1839 6.25739 10.5 7 10.5C7.74261 10.5 8.4548 10.1839 8.9799 9.6213C9.505 9.05869 9.8 8.29563 9.8 7.49998C9.8 6.70433 9.505 5.94127 8.9799 5.37867C8.4548 4.81606 7.74261 4.49999 7 4.49999ZM7.98995 8.56064C7.7274 8.84194 7.3713 8.99998 7 8.99998C6.6287 8.99998 6.2726 8.84194 6.01005 8.56064C5.7475 8.27934 5.6 7.89781 5.6 7.49998C5.6 7.10216 5.7475 6.72063 6.01005 6.43932C6.2726 6.15802 6.6287 5.99998 7 5.99998C7.3713 5.99998 7.7274 6.15802 7.98995 6.43932C8.2525 6.72063 8.4 7.10216 8.4 7.49998C8.4 7.89781 8.2525 8.27934 7.98995 8.56064Z" fill="#005FF9"/>
</svg>
