<svg width="18" height="18" viewBox="0 0 18 18" fill="none" xmlns="http://www.w3.org/2000/svg">
<g clip-path="url(#clip0_2584_6976)">
<path d="M4.63622 5.41805C2.46645 7.66548 1 11.2584 1 12.3535C1 13.4487 4.99984 16.7345 5.72708 17.0996C6.45433 17.4646 8.06816 17.0517 8.99968 16.0044C9.89696 14.9956 10.3578 14.0446 10.0905 12.719C9.88743 11.7114 8.63606 10.8938 8.63606 10.5287C8.63606 10.1637 9.72692 9.06852 10.0905 9.06852C10.4542 9.06852 11.7294 10.5287 12.9995 10.5287C14.2696 10.5287 15.0912 10.0446 15.9085 9.06852C16.9301 7.84844 17.363 6.14815 16.6357 5.05301C15.9085 3.95787 12.6359 1.40217 11.9087 1.03749C11.1814 0.672814 6.94132 3.03045 4.63622 5.41805Z" stroke="#D9D9D9" stroke-width="1.5" stroke-linecap="round"/>
</g>
<defs>
<clipPath id="clip0_2584_6976">
<rect width="18" height="18" fill="white"/>
</clipPath>
</defs>
</svg>
