<svg width="20" height="20" viewBox="0 0 20 20" fill="none" xmlns="http://www.w3.org/2000/svg">
<path fill-rule="evenodd" clip-rule="evenodd" d="M3.95262 3.95262C5.20286 2.70238 6.89856 2 8.66667 2C10.4348 2 12.1305 2.70238 13.3807 3.95262C14.631 5.20286 15.3333 6.89856 15.3333 8.66667C15.3333 10.1358 14.8484 11.555 13.9672 12.7101L17.7397 16.4826C18.0868 16.8297 18.0868 17.3925 17.7397 17.7397C17.3925 18.0868 16.8297 18.0868 16.4826 17.7397L12.7101 13.9672C11.555 14.8484 10.1358 15.3333 8.66667 15.3333C6.89856 15.3333 5.20286 14.631 3.95262 13.3807C2.70238 12.1305 2 10.4348 2 8.66667C2 6.89856 2.70238 5.20286 3.95262 3.95262ZM8.66667 3.77778C7.37005 3.77778 6.12654 4.29286 5.2097 5.2097C4.29286 6.12654 3.77778 7.37005 3.77778 8.66667C3.77778 9.96328 4.29286 11.2068 5.2097 12.1236C6.12654 13.0405 7.37005 13.5556 8.66667 13.5556C9.96328 13.5556 11.2068 13.0405 12.1236 12.1236C13.0405 11.2068 13.5556 9.96328 13.5556 8.66667C13.5556 7.37005 13.0405 6.12654 12.1236 5.2097C11.2068 4.29286 9.96328 3.77778 8.66667 3.77778Z" fill="#D9D9D9"/>
</svg>
