<svg width="20" height="20" viewBox="0 0 20 20" fill="none" xmlns="http://www.w3.org/2000/svg">
<path fill-rule="evenodd" clip-rule="evenodd" d="M9.41009 1.91058C9.73553 1.58514 10.2632 1.58514 10.5886 1.91058L14.7553 6.07725C15.0807 6.40269 15.0807 6.93032 14.7553 7.25576C14.4298 7.5812 13.9022 7.5812 13.5768 7.25576L10.8327 4.51168V12.4998C10.8327 12.9601 10.4596 13.3332 9.99935 13.3332C9.53911 13.3332 9.16602 12.9601 9.16602 12.4998V4.51168L6.42194 7.25576C6.0965 7.5812 5.56886 7.5812 5.24343 7.25576C4.91799 6.93032 4.91799 6.40269 5.24343 6.07725L9.41009 1.91058ZM2.49935 11.6665C2.95959 11.6665 3.33268 12.0396 3.33268 12.4998V15.8332C3.33268 16.0542 3.42048 16.2661 3.57676 16.4224C3.73304 16.5787 3.945 16.6665 4.16602 16.6665H15.8327C16.0537 16.6665 16.2657 16.5787 16.4219 16.4224C16.5782 16.2661 16.666 16.0542 16.666 15.8332V12.4998C16.666 12.0396 17.0391 11.6665 17.4993 11.6665C17.9596 11.6665 18.3327 12.0396 18.3327 12.4998V15.8332C18.3327 16.4962 18.0693 17.1321 17.6005 17.6009C17.1316 18.0698 16.4957 18.3332 15.8327 18.3332H4.16602C3.50297 18.3332 2.86709 18.0698 2.39825 17.6009C1.92941 17.1321 1.66602 16.4962 1.66602 15.8332V12.4998C1.66602 12.0396 2.03911 11.6665 2.49935 11.6665Z" fill="#2C2D2E"/>
</svg>
