<svg width="20" height="20" viewBox="0 0 20 20" fill="none" xmlns="http://www.w3.org/2000/svg">
<mask id="path-1-outside-1_3187_14541" maskUnits="userSpaceOnUse" x="0" y="0" width="20" height="20" fill="black">
<rect fill="white" width="20" height="20"/>
<path d="M18.7001 17.1957C18.5343 17.1957 18.4 17.33 18.4 17.4956C18.4029 17.7497 18.2976 17.9929 18.1104 18.1645C17.9232 18.3362 17.6719 18.4202 17.4191 18.3957C17.3186 18.3788 16.9391 18.3174 16.3615 18.2402C16.588 17.9364 16.6683 17.5481 16.5808 17.1795L16.5035 16.8528L16.0652 15.0001C15.8559 14.1051 15.2461 13.3563 14.4119 12.9704L13.3345 12.4685C13.1192 12.3129 12.9942 12.0615 13.0001 11.7959V9.99603C13.0003 9.88905 13.0574 9.79032 13.1501 9.73676L15.2236 8.54768C15.9704 8.11869 16.5186 7.4134 16.75 6.58397L17.6078 3.53856L17.893 2.52635C17.9047 2.47829 17.9136 2.42968 17.9198 2.38052C17.9243 2.35058 17.9333 2.3227 17.9357 2.29359C17.9357 2.28549 17.9357 2.27766 17.9357 2.26956C17.9514 2.0416 17.9004 1.81406 17.7889 1.61467C17.6347 1.33618 17.3754 1.13102 17.0689 1.04478C16.9913 1.02267 16.9118 1.00852 16.8313 1.00207C16.8181 1.00207 16.8055 1.00207 16.7923 1.00207C16.7265 0.998225 16.6605 0.999736 16.595 1.0066C16.5874 1.0066 16.5806 1.01017 16.573 1.01141C16.5038 1.02033 16.4354 1.03544 16.3688 1.05645C16.3102 1.07664 16.2532 1.10122 16.1984 1.13019C16.1845 1.13706 16.1702 1.14104 16.1566 1.14818C16.1432 1.15546 16.1374 1.1626 16.1267 1.16892C16.0697 1.2016 16.0155 1.23895 15.9646 1.28056C15.9368 1.30391 15.9142 1.33178 15.8888 1.3576C15.8585 1.38616 15.8297 1.4161 15.8023 1.44755C15.7758 1.48325 15.7514 1.52033 15.7291 1.55891C15.7111 1.58707 15.6905 1.61288 15.6749 1.64254C15.6382 1.71299 15.6086 1.78687 15.5867 1.86308L14.4116 5.68849C14.2787 6.12353 13.9853 6.49182 13.5911 6.71868L12.5542 7.31865L12.5342 7.32853C12.786 6.59083 12.6056 5.77431 12.0664 5.21129C12.1628 5.0053 12.133 4.76252 11.9897 4.58606C11.4586 3.91716 10.6282 3.55833 9.77716 3.62974C9.72305 3.24551 9.4282 2.9397 9.04629 2.87131C8.66438 2.80292 8.28178 2.98762 8.09776 3.32901C7.9136 3.67053 7.96964 4.0917 8.23674 4.37307C7.62975 5.18575 7.99669 6.39378 8.20254 6.9178C8.26462 7.06995 8.38698 7.18942 8.54065 7.24779C8.73387 7.90886 9.24048 8.4322 9.89485 8.64697L8.78482 9.20258C8.06425 9.56099 7.75609 10.425 8.08733 11.1585L8.76202 12.6608C8.71492 12.7215 8.65642 12.7724 8.58981 12.8107L6.73903 13.8794C6.32251 14.1208 5.99553 14.491 5.80753 14.9344L5.00361 16.8402C4.94607 16.9766 4.91256 17.1217 4.90432 17.2695C4.88715 17.5517 4.9657 17.8313 5.1272 18.0632C3.72205 18.2103 2.75237 18.3656 2.58113 18.3957C2.32817 18.4209 2.07644 18.337 1.88913 18.1652C1.70181 17.9934 1.59675 17.7498 1.60005 17.4956C1.60005 17.33 1.46574 17.1957 1.30012 17.1957C1.13437 17.1957 1.00006 17.33 1.00006 17.4956C0.996351 17.9132 1.16787 18.3133 1.47302 18.5983C1.77803 18.8834 2.18878 19.0276 2.60516 18.9956C2.62219 18.9956 2.63922 18.9941 2.65611 18.9911C5.08573 18.6093 7.54062 18.4103 10 18.3957C12.4595 18.4103 14.9144 18.6093 17.3441 18.9911C17.3609 18.9941 17.378 18.9956 17.3951 18.9956C17.8114 19.0276 18.2221 18.8834 18.5272 18.5983C18.8322 18.3133 19.0039 17.9132 19 17.4956C19 17.33 18.8657 17.1957 18.7001 17.1957ZM13.0919 16.4457L12.2717 14.6197L12.6074 14.776C13.2751 15.0853 13.763 15.685 13.9301 16.4016L14.2564 17.7815C14.2759 17.8604 14.3032 17.9371 14.3381 18.0105C13.8392 17.9636 13.298 17.9205 12.7262 17.8839C12.8942 17.7572 13.0254 17.5882 13.1063 17.394C13.2311 17.0892 13.2259 16.7465 13.0919 16.4457ZM15.9851 17.2656L15.9971 17.3168C16.0061 17.3549 16.012 17.3936 16.0148 17.4326C16.0295 17.6172 15.9659 17.7994 15.8395 17.9348C15.7909 17.9857 15.7326 18.0265 15.668 18.0548C15.5049 18.1269 15.318 18.1227 15.1583 18.0433C14.9985 17.9639 14.8825 17.8175 14.8414 17.6438L14.702 17.055L15.884 16.8399L15.9851 17.2656ZM14.1581 13.5142C14.8258 13.8231 15.3138 14.4222 15.4814 15.1384L15.7456 16.2552L14.5631 16.4703L14.5142 16.2633C14.3052 15.3682 13.6951 14.6194 12.8609 14.2337L11.8975 13.7837L11.395 12.6359L12.5741 12.4886C12.6808 12.7143 12.8591 12.8983 13.0814 13.012L14.1581 13.5142ZM17.2636 1.90538C17.3415 2.04476 17.3602 2.20955 17.3155 2.3628L17.1134 3.08073L15.9472 2.73124L16.1621 2.03172C16.1731 1.99285 16.1882 1.95523 16.207 1.91952C16.2092 1.91499 16.2125 1.91142 16.2149 1.90717C16.325 1.7086 16.5379 1.58926 16.7647 1.59874H16.7857C16.8264 1.60176 16.8666 1.6089 16.9058 1.62016C17.0583 1.66383 17.1871 1.76641 17.2636 1.90538ZM11.5249 4.96521L11.53 4.95628C11.5024 4.99528 11.4719 5.0325 11.4419 5.06998C10.6964 6.00913 9.3182 6.51833 8.75873 6.6941C8.76312 6.69259 8.76765 6.69163 8.77218 6.69108L8.76051 6.69616V6.69135C8.58624 6.24835 8.26366 5.21239 8.78509 4.65142C8.81325 4.65499 8.84112 4.65499 8.86941 4.65596C8.87724 4.65596 8.88438 4.65829 8.89248 4.65829H8.89908C8.95538 4.65815 9.01155 4.65239 9.06676 4.64126C9.07335 4.64126 9.07966 4.63824 9.08626 4.63673C9.13528 4.62602 9.18321 4.61105 9.22963 4.5921L9.24913 4.58455C9.2998 4.56271 9.34842 4.53621 9.39442 4.50572L9.39799 4.5027C9.43988 4.47373 9.47915 4.44132 9.51555 4.40575C9.52365 4.39793 9.53148 4.39024 9.5393 4.38213C9.57213 4.34835 9.6022 4.31224 9.62925 4.27379C9.63324 4.26843 9.63763 4.26362 9.64134 4.25786L9.64642 4.25127C10.357 4.11779 11.0825 4.39353 11.5249 4.96521ZM8.89015 3.4563C8.99013 3.45644 9.08365 3.50643 9.13927 3.58964C9.19475 3.67286 9.20518 3.77846 9.16701 3.87088C9.16495 3.87541 9.16165 3.87898 9.15945 3.88351C9.14641 3.91084 9.12938 3.93611 9.10878 3.95849C9.10164 3.96605 9.09353 3.97264 9.08571 3.9795C9.06662 3.99612 9.04561 4.0104 9.02295 4.0218C9.01375 4.02633 9.00468 4.03141 8.99507 4.03498C8.9617 4.04844 8.92613 4.05572 8.89015 4.05627C8.72439 4.05627 8.59009 3.92197 8.59009 3.75635C8.59009 3.59061 8.72439 3.4563 8.89015 3.4563ZM10.5461 8.15563C9.92739 8.15535 9.37231 7.77511 9.14833 7.19835L9.17236 7.1897C9.32452 7.13683 9.50236 7.06968 9.69503 6.98893L9.71179 6.98179C10.4517 6.68724 11.1263 6.24945 11.6966 5.69357C11.9784 6.02918 12.0986 6.47164 12.025 6.90366C11.9515 7.33567 11.6917 7.71345 11.3147 7.93687L11.087 8.05058C10.9149 8.11937 10.7315 8.15535 10.5461 8.15645V8.15563ZM8.63335 10.9128C8.43463 10.4723 8.6203 9.95346 9.0533 9.73896L11.3119 8.60921C11.4266 8.56403 11.537 8.50882 11.6419 8.44414L12.8396 7.84418L13.8922 7.2368C14.4179 6.934 14.809 6.44294 14.9863 5.86275L15.7724 3.30278L16.952 3.65666L16.1738 6.41959C15.9844 7.09797 15.5362 7.67486 14.9255 8.02572L12.85 9.21603C12.5718 9.37725 12.4003 9.67442 12.4001 9.99603V11.7959C12.4001 11.8311 12.4043 11.8686 12.4073 11.9051L11.1445 12.0629L10.7126 11.0759C10.6432 10.9295 10.47 10.8646 10.3214 10.9295C10.1728 10.9944 10.1028 11.1655 10.1631 11.316L11.3996 14.143L12.5432 16.6902C12.6107 16.8405 12.6133 17.0119 12.5507 17.1643C12.4879 17.3166 12.3654 17.4365 12.2117 17.4956C11.8966 17.5982 11.5553 17.4417 11.4278 17.1357L10.174 14.3437L9.37245 12.5587L8.63335 10.9128ZM6.35932 15.1675C6.4961 14.8443 6.73422 14.5745 7.03786 14.3986L8.89015 13.3309C8.93616 13.3039 8.98051 13.2738 9.02267 13.241L9.51802 14.3441L8.16286 15.1366C7.7462 15.3781 7.41936 15.7485 7.23136 16.1919L7.17134 16.3359L6.02959 15.9556L6.35932 15.1675ZM6.80934 17.1891L6.64194 17.5863C6.59058 17.7078 6.50077 17.809 6.38623 17.8742C6.34833 17.8961 6.30809 17.9135 6.26635 17.9264C6.17736 17.9536 6.08342 17.9597 5.99183 17.9441C5.90874 17.9304 5.82923 17.8998 5.75837 17.8542C5.64232 17.7769 5.5591 17.6593 5.52463 17.5242C5.48481 17.3748 5.49607 17.2165 5.55649 17.0742L5.79435 16.5097L6.93624 16.8903L6.80934 17.1891ZM7.15459 17.8914C7.16722 17.8667 7.18453 17.8451 7.19455 17.8197L7.78314 16.4238C7.92033 16.1003 8.15901 15.8303 8.46319 15.6544L9.76397 14.8932L10.8818 17.3832C10.9567 17.5474 11.065 17.6942 11.2 17.814C10.8056 17.8026 10.405 17.7957 10 17.7957C9.01004 17.7957 8.04475 17.8347 7.15431 17.8922L7.15459 17.8914Z"/>
</mask>
<path d="M18.7001 17.1957C18.5343 17.1957 18.4 17.33 18.4 17.4956C18.4029 17.7497 18.2976 17.9929 18.1104 18.1645C17.9232 18.3362 17.6719 18.4202 17.4191 18.3957C17.3186 18.3788 16.9391 18.3174 16.3615 18.2402C16.588 17.9364 16.6683 17.5481 16.5808 17.1795L16.5035 16.8528L16.0652 15.0001C15.8559 14.1051 15.2461 13.3563 14.4119 12.9704L13.3345 12.4685C13.1192 12.3129 12.9942 12.0615 13.0001 11.7959V9.99603C13.0003 9.88905 13.0574 9.79032 13.1501 9.73676L15.2236 8.54768C15.9704 8.11869 16.5186 7.4134 16.75 6.58397L17.6078 3.53856L17.893 2.52635C17.9047 2.47829 17.9136 2.42968 17.9198 2.38052C17.9243 2.35058 17.9333 2.3227 17.9357 2.29359C17.9357 2.28549 17.9357 2.27766 17.9357 2.26956C17.9514 2.0416 17.9004 1.81406 17.7889 1.61467C17.6347 1.33618 17.3754 1.13102 17.0689 1.04478C16.9913 1.02267 16.9118 1.00852 16.8313 1.00207C16.8181 1.00207 16.8055 1.00207 16.7923 1.00207C16.7265 0.998225 16.6605 0.999736 16.595 1.0066C16.5874 1.0066 16.5806 1.01017 16.573 1.01141C16.5038 1.02033 16.4354 1.03544 16.3688 1.05645C16.3102 1.07664 16.2532 1.10122 16.1984 1.13019C16.1845 1.13706 16.1702 1.14104 16.1566 1.14818C16.1432 1.15546 16.1374 1.1626 16.1267 1.16892C16.0697 1.2016 16.0155 1.23895 15.9646 1.28056C15.9368 1.30391 15.9142 1.33178 15.8888 1.3576C15.8585 1.38616 15.8297 1.4161 15.8023 1.44755C15.7758 1.48325 15.7514 1.52033 15.7291 1.55891C15.7111 1.58707 15.6905 1.61288 15.6749 1.64254C15.6382 1.71299 15.6086 1.78687 15.5867 1.86308L14.4116 5.68849C14.2787 6.12353 13.9853 6.49182 13.5911 6.71868L12.5542 7.31865L12.5342 7.32853C12.786 6.59083 12.6056 5.77431 12.0664 5.21129C12.1628 5.0053 12.133 4.76252 11.9897 4.58606C11.4586 3.91716 10.6282 3.55833 9.77716 3.62974C9.72305 3.24551 9.4282 2.9397 9.04629 2.87131C8.66438 2.80292 8.28178 2.98762 8.09776 3.32901C7.9136 3.67053 7.96964 4.0917 8.23674 4.37307C7.62975 5.18575 7.99669 6.39378 8.20254 6.9178C8.26462 7.06995 8.38698 7.18942 8.54065 7.24779C8.73387 7.90886 9.24048 8.4322 9.89485 8.64697L8.78482 9.20258C8.06425 9.56099 7.75609 10.425 8.08733 11.1585L8.76202 12.6608C8.71492 12.7215 8.65642 12.7724 8.58981 12.8107L6.73903 13.8794C6.32251 14.1208 5.99553 14.491 5.80753 14.9344L5.00361 16.8402C4.94607 16.9766 4.91256 17.1217 4.90432 17.2695C4.88715 17.5517 4.9657 17.8313 5.1272 18.0632C3.72205 18.2103 2.75237 18.3656 2.58113 18.3957C2.32817 18.4209 2.07644 18.337 1.88913 18.1652C1.70181 17.9934 1.59675 17.7498 1.60005 17.4956C1.60005 17.33 1.46574 17.1957 1.30012 17.1957C1.13437 17.1957 1.00006 17.33 1.00006 17.4956C0.996351 17.9132 1.16787 18.3133 1.47302 18.5983C1.77803 18.8834 2.18878 19.0276 2.60516 18.9956C2.62219 18.9956 2.63922 18.9941 2.65611 18.9911C5.08573 18.6093 7.54062 18.4103 10 18.3957C12.4595 18.4103 14.9144 18.6093 17.3441 18.9911C17.3609 18.9941 17.378 18.9956 17.3951 18.9956C17.8114 19.0276 18.2221 18.8834 18.5272 18.5983C18.8322 18.3133 19.0039 17.9132 19 17.4956C19 17.33 18.8657 17.1957 18.7001 17.1957ZM13.0919 16.4457L12.2717 14.6197L12.6074 14.776C13.2751 15.0853 13.763 15.685 13.9301 16.4016L14.2564 17.7815C14.2759 17.8604 14.3032 17.9371 14.3381 18.0105C13.8392 17.9636 13.298 17.9205 12.7262 17.8839C12.8942 17.7572 13.0254 17.5882 13.1063 17.394C13.2311 17.0892 13.2259 16.7465 13.0919 16.4457ZM15.9851 17.2656L15.9971 17.3168C16.0061 17.3549 16.012 17.3936 16.0148 17.4326C16.0295 17.6172 15.9659 17.7994 15.8395 17.9348C15.7909 17.9857 15.7326 18.0265 15.668 18.0548C15.5049 18.1269 15.318 18.1227 15.1583 18.0433C14.9985 17.9639 14.8825 17.8175 14.8414 17.6438L14.702 17.055L15.884 16.8399L15.9851 17.2656ZM14.1581 13.5142C14.8258 13.8231 15.3138 14.4222 15.4814 15.1384L15.7456 16.2552L14.5631 16.4703L14.5142 16.2633C14.3052 15.3682 13.6951 14.6194 12.8609 14.2337L11.8975 13.7837L11.395 12.6359L12.5741 12.4886C12.6808 12.7143 12.8591 12.8983 13.0814 13.012L14.1581 13.5142ZM17.2636 1.90538C17.3415 2.04476 17.3602 2.20955 17.3155 2.3628L17.1134 3.08073L15.9472 2.73124L16.1621 2.03172C16.1731 1.99285 16.1882 1.95523 16.207 1.91952C16.2092 1.91499 16.2125 1.91142 16.2149 1.90717C16.325 1.7086 16.5379 1.58926 16.7647 1.59874H16.7857C16.8264 1.60176 16.8666 1.6089 16.9058 1.62016C17.0583 1.66383 17.1871 1.76641 17.2636 1.90538ZM11.5249 4.96521L11.53 4.95628C11.5024 4.99528 11.4719 5.0325 11.4419 5.06998C10.6964 6.00913 9.3182 6.51833 8.75873 6.6941C8.76312 6.69259 8.76765 6.69163 8.77218 6.69108L8.76051 6.69616V6.69135C8.58624 6.24835 8.26366 5.21239 8.78509 4.65142C8.81325 4.65499 8.84112 4.65499 8.86941 4.65596C8.87724 4.65596 8.88438 4.65829 8.89248 4.65829H8.89908C8.95538 4.65815 9.01155 4.65239 9.06676 4.64126C9.07335 4.64126 9.07966 4.63824 9.08626 4.63673C9.13528 4.62602 9.18321 4.61105 9.22963 4.5921L9.24913 4.58455C9.2998 4.56271 9.34842 4.53621 9.39442 4.50572L9.39799 4.5027C9.43988 4.47373 9.47915 4.44132 9.51555 4.40575C9.52365 4.39793 9.53148 4.39024 9.5393 4.38213C9.57213 4.34835 9.6022 4.31224 9.62925 4.27379C9.63324 4.26843 9.63763 4.26362 9.64134 4.25786L9.64642 4.25127C10.357 4.11779 11.0825 4.39353 11.5249 4.96521ZM8.89015 3.4563C8.99013 3.45644 9.08365 3.50643 9.13927 3.58964C9.19475 3.67286 9.20518 3.77846 9.16701 3.87088C9.16495 3.87541 9.16165 3.87898 9.15945 3.88351C9.14641 3.91084 9.12938 3.93611 9.10878 3.95849C9.10164 3.96605 9.09353 3.97264 9.08571 3.9795C9.06662 3.99612 9.04561 4.0104 9.02295 4.0218C9.01375 4.02633 9.00468 4.03141 8.99507 4.03498C8.9617 4.04844 8.92613 4.05572 8.89015 4.05627C8.72439 4.05627 8.59009 3.92197 8.59009 3.75635C8.59009 3.59061 8.72439 3.4563 8.89015 3.4563ZM10.5461 8.15563C9.92739 8.15535 9.37231 7.77511 9.14833 7.19835L9.17236 7.1897C9.32452 7.13683 9.50236 7.06968 9.69503 6.98893L9.71179 6.98179C10.4517 6.68724 11.1263 6.24945 11.6966 5.69357C11.9784 6.02918 12.0986 6.47164 12.025 6.90366C11.9515 7.33567 11.6917 7.71345 11.3147 7.93687L11.087 8.05058C10.9149 8.11937 10.7315 8.15535 10.5461 8.15645V8.15563ZM8.63335 10.9128C8.43463 10.4723 8.6203 9.95346 9.0533 9.73896L11.3119 8.60921C11.4266 8.56403 11.537 8.50882 11.6419 8.44414L12.8396 7.84418L13.8922 7.2368C14.4179 6.934 14.809 6.44294 14.9863 5.86275L15.7724 3.30278L16.952 3.65666L16.1738 6.41959C15.9844 7.09797 15.5362 7.67486 14.9255 8.02572L12.85 9.21603C12.5718 9.37725 12.4003 9.67442 12.4001 9.99603V11.7959C12.4001 11.8311 12.4043 11.8686 12.4073 11.9051L11.1445 12.0629L10.7126 11.0759C10.6432 10.9295 10.47 10.8646 10.3214 10.9295C10.1728 10.9944 10.1028 11.1655 10.1631 11.316L11.3996 14.143L12.5432 16.6902C12.6107 16.8405 12.6133 17.0119 12.5507 17.1643C12.4879 17.3166 12.3654 17.4365 12.2117 17.4956C11.8966 17.5982 11.5553 17.4417 11.4278 17.1357L10.174 14.3437L9.37245 12.5587L8.63335 10.9128ZM6.35932 15.1675C6.4961 14.8443 6.73422 14.5745 7.03786 14.3986L8.89015 13.3309C8.93616 13.3039 8.98051 13.2738 9.02267 13.241L9.51802 14.3441L8.16286 15.1366C7.7462 15.3781 7.41936 15.7485 7.23136 16.1919L7.17134 16.3359L6.02959 15.9556L6.35932 15.1675ZM6.80934 17.1891L6.64194 17.5863C6.59058 17.7078 6.50077 17.809 6.38623 17.8742C6.34833 17.8961 6.30809 17.9135 6.26635 17.9264C6.17736 17.9536 6.08342 17.9597 5.99183 17.9441C5.90874 17.9304 5.82923 17.8998 5.75837 17.8542C5.64232 17.7769 5.5591 17.6593 5.52463 17.5242C5.48481 17.3748 5.49607 17.2165 5.55649 17.0742L5.79435 16.5097L6.93624 16.8903L6.80934 17.1891ZM7.15459 17.8914C7.16722 17.8667 7.18453 17.8451 7.19455 17.8197L7.78314 16.4238C7.92033 16.1003 8.15901 15.8303 8.46319 15.6544L9.76397 14.8932L10.8818 17.3832C10.9567 17.5474 11.065 17.6942 11.2 17.814C10.8056 17.8026 10.405 17.7957 10 17.7957C9.01004 17.7957 8.04475 17.8347 7.15431 17.8922L7.15459 17.8914Z" fill="#005FF9"/>
<path d="M18.7001 17.1957C18.5343 17.1957 18.4 17.33 18.4 17.4956C18.4029 17.7497 18.2976 17.9929 18.1104 18.1645C17.9232 18.3362 17.6719 18.4202 17.4191 18.3957C17.3186 18.3788 16.9391 18.3174 16.3615 18.2402C16.588 17.9364 16.6683 17.5481 16.5808 17.1795L16.5035 16.8528L16.0652 15.0001C15.8559 14.1051 15.2461 13.3563 14.4119 12.9704L13.3345 12.4685C13.1192 12.3129 12.9942 12.0615 13.0001 11.7959V9.99603C13.0003 9.88905 13.0574 9.79032 13.1501 9.73676L15.2236 8.54768C15.9704 8.11869 16.5186 7.4134 16.75 6.58397L17.6078 3.53856L17.893 2.52635C17.9047 2.47829 17.9136 2.42968 17.9198 2.38052C17.9243 2.35058 17.9333 2.3227 17.9357 2.29359C17.9357 2.28549 17.9357 2.27766 17.9357 2.26956C17.9514 2.0416 17.9004 1.81406 17.7889 1.61467C17.6347 1.33618 17.3754 1.13102 17.0689 1.04478C16.9913 1.02267 16.9118 1.00852 16.8313 1.00207C16.8181 1.00207 16.8055 1.00207 16.7923 1.00207C16.7265 0.998225 16.6605 0.999736 16.595 1.0066C16.5874 1.0066 16.5806 1.01017 16.573 1.01141C16.5038 1.02033 16.4354 1.03544 16.3688 1.05645C16.3102 1.07664 16.2532 1.10122 16.1984 1.13019C16.1845 1.13706 16.1702 1.14104 16.1566 1.14818C16.1432 1.15546 16.1374 1.1626 16.1267 1.16892C16.0697 1.2016 16.0155 1.23895 15.9646 1.28056C15.9368 1.30391 15.9142 1.33178 15.8888 1.3576C15.8585 1.38616 15.8297 1.4161 15.8023 1.44755C15.7758 1.48325 15.7514 1.52033 15.7291 1.55891C15.7111 1.58707 15.6905 1.61288 15.6749 1.64254C15.6382 1.71299 15.6086 1.78687 15.5867 1.86308L14.4116 5.68849C14.2787 6.12353 13.9853 6.49182 13.5911 6.71868L12.5542 7.31865L12.5342 7.32853C12.786 6.59083 12.6056 5.77431 12.0664 5.21129C12.1628 5.0053 12.133 4.76252 11.9897 4.58606C11.4586 3.91716 10.6282 3.55833 9.77716 3.62974C9.72305 3.24551 9.4282 2.9397 9.04629 2.87131C8.66438 2.80292 8.28178 2.98762 8.09776 3.32901C7.9136 3.67053 7.96964 4.0917 8.23674 4.37307C7.62975 5.18575 7.99669 6.39378 8.20254 6.9178C8.26462 7.06995 8.38698 7.18942 8.54065 7.24779C8.73387 7.90886 9.24048 8.4322 9.89485 8.64697L8.78482 9.20258C8.06425 9.56099 7.75609 10.425 8.08733 11.1585L8.76202 12.6608C8.71492 12.7215 8.65642 12.7724 8.58981 12.8107L6.73903 13.8794C6.32251 14.1208 5.99553 14.491 5.80753 14.9344L5.00361 16.8402C4.94607 16.9766 4.91256 17.1217 4.90432 17.2695C4.88715 17.5517 4.9657 17.8313 5.1272 18.0632C3.72205 18.2103 2.75237 18.3656 2.58113 18.3957C2.32817 18.4209 2.07644 18.337 1.88913 18.1652C1.70181 17.9934 1.59675 17.7498 1.60005 17.4956C1.60005 17.33 1.46574 17.1957 1.30012 17.1957C1.13437 17.1957 1.00006 17.33 1.00006 17.4956C0.996351 17.9132 1.16787 18.3133 1.47302 18.5983C1.77803 18.8834 2.18878 19.0276 2.60516 18.9956C2.62219 18.9956 2.63922 18.9941 2.65611 18.9911C5.08573 18.6093 7.54062 18.4103 10 18.3957C12.4595 18.4103 14.9144 18.6093 17.3441 18.9911C17.3609 18.9941 17.378 18.9956 17.3951 18.9956C17.8114 19.0276 18.2221 18.8834 18.5272 18.5983C18.8322 18.3133 19.0039 17.9132 19 17.4956C19 17.33 18.8657 17.1957 18.7001 17.1957ZM13.0919 16.4457L12.2717 14.6197L12.6074 14.776C13.2751 15.0853 13.763 15.685 13.9301 16.4016L14.2564 17.7815C14.2759 17.8604 14.3032 17.9371 14.3381 18.0105C13.8392 17.9636 13.298 17.9205 12.7262 17.8839C12.8942 17.7572 13.0254 17.5882 13.1063 17.394C13.2311 17.0892 13.2259 16.7465 13.0919 16.4457ZM15.9851 17.2656L15.9971 17.3168C16.0061 17.3549 16.012 17.3936 16.0148 17.4326C16.0295 17.6172 15.9659 17.7994 15.8395 17.9348C15.7909 17.9857 15.7326 18.0265 15.668 18.0548C15.5049 18.1269 15.318 18.1227 15.1583 18.0433C14.9985 17.9639 14.8825 17.8175 14.8414 17.6438L14.702 17.055L15.884 16.8399L15.9851 17.2656ZM14.1581 13.5142C14.8258 13.8231 15.3138 14.4222 15.4814 15.1384L15.7456 16.2552L14.5631 16.4703L14.5142 16.2633C14.3052 15.3682 13.6951 14.6194 12.8609 14.2337L11.8975 13.7837L11.395 12.6359L12.5741 12.4886C12.6808 12.7143 12.8591 12.8983 13.0814 13.012L14.1581 13.5142ZM17.2636 1.90538C17.3415 2.04476 17.3602 2.20955 17.3155 2.3628L17.1134 3.08073L15.9472 2.73124L16.1621 2.03172C16.1731 1.99285 16.1882 1.95523 16.207 1.91952C16.2092 1.91499 16.2125 1.91142 16.2149 1.90717C16.325 1.7086 16.5379 1.58926 16.7647 1.59874H16.7857C16.8264 1.60176 16.8666 1.6089 16.9058 1.62016C17.0583 1.66383 17.1871 1.76641 17.2636 1.90538ZM11.5249 4.96521L11.53 4.95628C11.5024 4.99528 11.4719 5.0325 11.4419 5.06998C10.6964 6.00913 9.3182 6.51833 8.75873 6.6941C8.76312 6.69259 8.76765 6.69163 8.77218 6.69108L8.76051 6.69616V6.69135C8.58624 6.24835 8.26366 5.21239 8.78509 4.65142C8.81325 4.65499 8.84112 4.65499 8.86941 4.65596C8.87724 4.65596 8.88438 4.65829 8.89248 4.65829H8.89908C8.95538 4.65815 9.01155 4.65239 9.06676 4.64126C9.07335 4.64126 9.07966 4.63824 9.08626 4.63673C9.13528 4.62602 9.18321 4.61105 9.22963 4.5921L9.24913 4.58455C9.2998 4.56271 9.34842 4.53621 9.39442 4.50572L9.39799 4.5027C9.43988 4.47373 9.47915 4.44132 9.51555 4.40575C9.52365 4.39793 9.53148 4.39024 9.5393 4.38213C9.57213 4.34835 9.6022 4.31224 9.62925 4.27379C9.63324 4.26843 9.63763 4.26362 9.64134 4.25786L9.64642 4.25127C10.357 4.11779 11.0825 4.39353 11.5249 4.96521ZM8.89015 3.4563C8.99013 3.45644 9.08365 3.50643 9.13927 3.58964C9.19475 3.67286 9.20518 3.77846 9.16701 3.87088C9.16495 3.87541 9.16165 3.87898 9.15945 3.88351C9.14641 3.91084 9.12938 3.93611 9.10878 3.95849C9.10164 3.96605 9.09353 3.97264 9.08571 3.9795C9.06662 3.99612 9.04561 4.0104 9.02295 4.0218C9.01375 4.02633 9.00468 4.03141 8.99507 4.03498C8.9617 4.04844 8.92613 4.05572 8.89015 4.05627C8.72439 4.05627 8.59009 3.92197 8.59009 3.75635C8.59009 3.59061 8.72439 3.4563 8.89015 3.4563ZM10.5461 8.15563C9.92739 8.15535 9.37231 7.77511 9.14833 7.19835L9.17236 7.1897C9.32452 7.13683 9.50236 7.06968 9.69503 6.98893L9.71179 6.98179C10.4517 6.68724 11.1263 6.24945 11.6966 5.69357C11.9784 6.02918 12.0986 6.47164 12.025 6.90366C11.9515 7.33567 11.6917 7.71345 11.3147 7.93687L11.087 8.05058C10.9149 8.11937 10.7315 8.15535 10.5461 8.15645V8.15563ZM8.63335 10.9128C8.43463 10.4723 8.6203 9.95346 9.0533 9.73896L11.3119 8.60921C11.4266 8.56403 11.537 8.50882 11.6419 8.44414L12.8396 7.84418L13.8922 7.2368C14.4179 6.934 14.809 6.44294 14.9863 5.86275L15.7724 3.30278L16.952 3.65666L16.1738 6.41959C15.9844 7.09797 15.5362 7.67486 14.9255 8.02572L12.85 9.21603C12.5718 9.37725 12.4003 9.67442 12.4001 9.99603V11.7959C12.4001 11.8311 12.4043 11.8686 12.4073 11.9051L11.1445 12.0629L10.7126 11.0759C10.6432 10.9295 10.47 10.8646 10.3214 10.9295C10.1728 10.9944 10.1028 11.1655 10.1631 11.316L11.3996 14.143L12.5432 16.6902C12.6107 16.8405 12.6133 17.0119 12.5507 17.1643C12.4879 17.3166 12.3654 17.4365 12.2117 17.4956C11.8966 17.5982 11.5553 17.4417 11.4278 17.1357L10.174 14.3437L9.37245 12.5587L8.63335 10.9128ZM6.35932 15.1675C6.4961 14.8443 6.73422 14.5745 7.03786 14.3986L8.89015 13.3309C8.93616 13.3039 8.98051 13.2738 9.02267 13.241L9.51802 14.3441L8.16286 15.1366C7.7462 15.3781 7.41936 15.7485 7.23136 16.1919L7.17134 16.3359L6.02959 15.9556L6.35932 15.1675ZM6.80934 17.1891L6.64194 17.5863C6.59058 17.7078 6.50077 17.809 6.38623 17.8742C6.34833 17.8961 6.30809 17.9135 6.26635 17.9264C6.17736 17.9536 6.08342 17.9597 5.99183 17.9441C5.90874 17.9304 5.82923 17.8998 5.75837 17.8542C5.64232 17.7769 5.5591 17.6593 5.52463 17.5242C5.48481 17.3748 5.49607 17.2165 5.55649 17.0742L5.79435 16.5097L6.93624 16.8903L6.80934 17.1891ZM7.15459 17.8914C7.16722 17.8667 7.18453 17.8451 7.19455 17.8197L7.78314 16.4238C7.92033 16.1003 8.15901 15.8303 8.46319 15.6544L9.76397 14.8932L10.8818 17.3832C10.9567 17.5474 11.065 17.6942 11.2 17.814C10.8056 17.8026 10.405 17.7957 10 17.7957C9.01004 17.7957 8.04475 17.8347 7.15431 17.8922L7.15459 17.8914Z" stroke="#005FF9" stroke-width="0.4" mask="url(#path-1-outside-1_3187_14541)"/>
</svg>
