<svg width="14" height="14" viewBox="0 0 14 14" fill="none" xmlns="http://www.w3.org/2000/svg">
<g id="24px / tuiIconStarLarge">
<path id="Union" fill-rule="evenodd" clip-rule="evenodd" d="M7.00067 0.583496C7.2227 0.583496 7.42547 0.709538 7.52375 0.908632L9.19065 4.2856L12.9184 4.83046C13.138 4.86257 13.3204 5.01657 13.3889 5.22774C13.4574 5.43891 13.4 5.67065 13.241 5.82554L10.5441 8.45229L11.1806 12.1632C11.2181 12.3821 11.1282 12.6033 10.9485 12.7338C10.7689 12.8643 10.5307 12.8815 10.3342 12.7781L7.00067 11.0251L3.66718 12.7781C3.47065 12.8815 3.23248 12.8643 3.05282 12.7338C2.87317 12.6033 2.78319 12.3821 2.82073 12.1632L3.4572 8.45229L0.760324 5.82554C0.601297 5.67065 0.543971 5.43891 0.612441 5.22774C0.680911 5.01657 0.863308 4.86257 1.08297 4.83046L4.81068 4.2856L6.47759 0.908632C6.57586 0.709538 6.77864 0.583496 7.00067 0.583496Z" fill="#D9D9D9"/>
</g>
</svg>
