<svg width="14" height="14" viewBox="0 0 14 14" fill="none" xmlns="http://www.w3.org/2000/svg">
<g id="24px / tuiIconStarLarge">
<path id="Union" fill-rule="evenodd" clip-rule="evenodd" d="M7.00067 0.583008C7.2227 0.583008 7.42547 0.70905 7.52375 0.908144L9.19065 4.28511L12.9184 4.82997C13.138 4.86208 13.3204 5.01608 13.3889 5.22726C13.4574 5.43843 13.4 5.67016 13.241 5.82505L10.5441 8.4518L11.1806 12.1627C11.2181 12.3816 11.1282 12.6028 10.9485 12.7333C10.7689 12.8638 10.5307 12.881 10.3342 12.7776L7.00067 11.0246L3.66718 12.7776C3.47065 12.881 3.23248 12.8638 3.05282 12.7333C2.87317 12.6028 2.78319 12.3816 2.82073 12.1627L3.4572 8.4518L0.760324 5.82505C0.601297 5.67016 0.543971 5.43843 0.612441 5.22726C0.680911 5.01608 0.863308 4.86208 1.08297 4.82997L4.81068 4.28511L6.47759 0.908144C6.57586 0.70905 6.77864 0.583008 7.00067 0.583008Z" fill="#005FF9"/>
</g>
</svg>
