<svg width="18" height="16" viewBox="0 0 18 16" fill="none" xmlns="http://www.w3.org/2000/svg">
<path d="M15.6623 10.5359H6.20267C5.62573 10.5359 5.15624 10.0665 5.15624 9.48957C5.15624 8.91263 5.62573 8.44314 6.20267 8.44314H10.598C11.0242 8.44314 11.3698 8.09755 11.3698 7.67127C11.3698 7.245 11.0242 6.89941 10.598 6.89941H6.20267C4.77453 6.89941 3.61251 8.06142 3.61251 9.48957C3.61251 10.9177 4.77453 12.0796 6.20267 12.0796H15.6623C16.1001 12.0796 16.4563 12.4358 16.4563 12.8736C16.4563 13.3114 16.1001 13.6676 15.6623 13.6676H0.771861C0.345588 13.6676 0 14.0132 0 14.4395C0 14.8657 0.345588 15.2113 0.771861 15.2113H15.6623C16.9513 15.2113 18 14.1626 18 12.8736C18 11.5846 16.9513 10.5359 15.6623 10.5359Z" fill="black"/>
<path d="M13.1504 8.19744C13.3003 8.34388 13.495 8.41716 13.6897 8.41716C13.8844 8.41716 14.0792 8.34399 14.2291 8.19744C14.6697 7.76705 16.8677 5.54028 16.8677 3.96609C16.8677 2.21376 15.4421 0.788086 13.6897 0.788086C11.9374 0.788086 10.5117 2.21376 10.5117 3.96609C10.5116 5.54018 12.7097 7.76694 13.1504 8.19744ZM13.6896 2.3317C14.5907 2.3317 15.3239 3.06487 15.3239 3.96599C15.3239 4.47799 14.5497 5.58577 13.6896 6.53238C12.8296 5.58577 12.0553 4.47799 12.0553 3.96599C12.0553 3.06487 12.7885 2.3317 13.6896 2.3317Z" fill="black"/>
</svg>
