<svg width="18" height="18" viewBox="0 0 18 18" fill="none" xmlns="http://www.w3.org/2000/svg">
<g clip-path="url(#clip0_2795_15314)">
<path d="M15.229 0.442501C15.2039 0.417176 15.1741 0.397057 15.1411 0.383322C15.1082 0.369587 15.0728 0.362512 15.037 0.362512C15.0013 0.362512 14.9659 0.369587 14.933 0.383322C14.9 0.397057 14.8701 0.417176 14.8451 0.442501L9.67878 4.69123C9.62163 4.50577 9.49528 4.34893 9.32552 4.25271C9.15576 4.15649 8.95538 4.12815 8.76527 4.17347L6.58511 4.43235C6.50331 4.42811 6.42284 4.41008 6.34714 4.37905L3.46074 2.85621C3.33529 2.80983 3.20304 2.78411 3.06923 2.78006C2.92734 2.77025 2.78479 2.7831 2.64702 2.81814C2.34386 2.87708 2.07665 3.05286 1.90396 3.30692C1.73127 3.56099 1.66721 3.87262 1.72582 4.17347L2.62399 8.87144C2.64783 9.02185 2.70555 9.16499 2.79287 9.29022L4.80414 12.7395L4.92697 12.9527V16.3486L0.436156 17.4298C0.182829 17.4907 -0.00140978 17.643 -0.00140978 17.7801C-0.00473841 17.7951 -0.00473841 17.8107 -0.00140978 17.8257C0.0676796 17.9476 0.297978 17.9933 0.543629 17.94L1.10402 17.8029L12.2811 15.1532C12.3856 15.113 12.4799 15.0506 12.5575 14.9704C12.6329 14.8905 12.6882 14.7939 12.7187 14.6887C12.7571 14.5136 12.7878 14.2699 12.6573 14.1557C12.6351 14.1324 12.6083 14.1139 12.5786 14.1012C12.5489 14.0886 12.5169 14.082 12.4846 14.082C12.4523 14.082 12.4203 14.0886 12.3906 14.1012C12.3609 14.1139 12.3341 14.1324 12.3119 14.1557C12.2274 14.2471 12.2504 14.4527 12.166 14.5821C12.0816 14.7115 12.166 14.5821 12.1199 14.5821L6.53138 15.9907V12.5186C6.52636 12.3687 6.48417 12.2222 6.40855 12.0922L5.08818 9.47296L9.94373 5.3999L15.1411 1.06333C15.169 1.03994 15.2491 0.778784 15.2657 0.746548C15.2823 0.714312 15.2924 0.679122 15.2952 0.643014C15.2981 0.606905 15.2937 0.570594 15.2823 0.536177C15.271 0.501761 15.2528 0.469922 15.229 0.442501ZM5.08818 8.55164C5.08818 8.50595 4.40496 4.90443 4.40496 4.90443C4.40496 4.90443 5.85583 5.66585 5.89422 5.66585H6.04775H6.19361L8.84203 5.35367L5.08818 8.55164ZM3.6373 12.1836C3.76263 12.1063 3.85323 11.9841 3.89037 11.8424C3.92752 11.7007 3.90837 11.5503 3.83689 11.4222L2.83893 9.68616C2.76343 9.55924 2.64139 9.4662 2.49832 9.42646C2.35525 9.38673 2.20224 9.40339 2.07127 9.47296C1.94332 9.54785 1.84951 9.6689 1.80945 9.8108C1.76939 9.95271 1.78619 10.1045 1.85633 10.2344L2.86196 11.9628C2.93765 12.0916 3.06052 12.1864 3.20496 12.2275C3.34939 12.2687 3.50426 12.2529 3.6373 12.1836ZM2.86964 2.71154C3.14103 2.70701 3.405 2.62286 3.62823 2.4697C3.85147 2.31654 4.02397 2.10123 4.12397 1.85094C4.22398 1.60065 4.24701 1.32659 4.19016 1.06333C4.13331 0.800075 3.99913 0.559414 3.80454 0.37171C3.60995 0.184006 3.36368 0.0576683 3.09678 0.00863513C2.82989 -0.040398 2.55433 -0.00993007 2.30487 0.0961953C2.05542 0.202321 1.84324 0.379349 1.6951 0.604948C1.54696 0.830546 1.4695 1.09461 1.4725 1.36382C1.47249 1.54245 1.50809 1.71931 1.57724 1.88425C1.64639 2.04918 1.74773 2.19893 1.87543 2.32489C2.00313 2.45084 2.15467 2.55051 2.32134 2.61818C2.48801 2.68584 2.66652 2.72015 2.84661 2.71915L2.86964 2.71154Z" fill="black"/>
</g>
<defs>
<clipPath id="clip0_2795_15314">
<rect width="18" height="18" fill="white"/>
</clipPath>
</defs>
</svg>
