<svg width="19" height="18" viewBox="0 0 19 18" fill="none" xmlns="http://www.w3.org/2000/svg">
<g clip-path="url(#clip0_2795_15302)">
<path d="M18.161 13.9553C18.1326 13.9514 18.1037 13.9541 18.0767 13.9633C18.0497 13.9724 18.0253 13.9877 18.0057 14.0078C17.9358 14.0754 18.0057 14.2556 17.9668 14.3306C17.928 14.4057 17.9668 14.3682 17.9668 14.3682L13.0506 15.5468V12.011C13.0517 11.9413 13.0384 11.8722 13.0115 11.8076C12.9846 11.743 12.9448 11.6841 12.8942 11.6345C12.8436 11.5849 12.7833 11.5456 12.7168 11.5187C12.6504 11.4918 12.579 11.478 12.507 11.478H9.81978C9.76174 11.4636 9.70877 11.4345 9.66641 11.3935C9.62405 11.3526 9.59387 11.3014 9.57902 11.2453L9.15186 8.76044L9.68775 9.29344C9.74899 9.3547 9.82271 9.40302 9.90426 9.43532C9.9858 9.46762 10.0734 9.48322 10.1615 9.48111C10.3193 9.48221 10.4718 9.42594 10.5887 9.32347L12.0255 8.5052C12.0863 8.47125 12.1393 8.42575 12.1815 8.37144C12.2236 8.31714 12.2539 8.25516 12.2706 8.18923C12.2873 8.12329 12.29 8.05478 12.2786 7.98781C12.2671 7.92084 12.2418 7.8568 12.2041 7.79954V7.73198C12.1229 7.61146 11.996 7.52661 11.8507 7.49572C11.7055 7.46482 11.5534 7.49036 11.4274 7.56682L10.3479 8.18991L8.63151 6.50083L8.49171 6.35819L8.38298 6.27562C8.24362 6.16734 8.08296 6.08756 7.91074 6.0411C7.73852 5.99465 7.55833 5.98249 7.3811 6.00536H7.28791C7.12715 6.02961 6.97314 6.08511 6.83519 6.1685C6.69725 6.25189 6.57822 6.36145 6.4853 6.49055C6.39239 6.61966 6.32751 6.76563 6.2946 6.91964C6.26168 7.07366 6.26141 7.23253 6.2938 7.38665L7.12481 12.1987C7.16599 12.4358 7.2822 12.6549 7.45744 12.8256C7.63268 12.9963 7.85834 13.1104 8.10339 13.152H8.16552C8.19344 13.1598 8.22303 13.1598 8.25095 13.152H11.078C11.3498 13.2196 11.3575 13.4073 11.3575 13.4373V15.9146L6.58116 17.0857C6.3404 17.1458 4.55 17.5493 4.55 17.5493C4.55 17.5493 4.23157 18.0519 4.55 17.9993L7.24907 17.4686L18.0212 14.9312C18.1313 14.8807 18.2261 14.8039 18.2968 14.708C18.3675 14.612 18.4116 14.5002 18.425 14.3832C18.4395 14.2933 18.421 14.2014 18.3728 14.1232C18.3246 14.0451 18.2497 13.9857 18.161 13.9553ZM6.11517 4.57152C6.11519 4.83793 6.19713 5.09832 6.35058 5.31961C6.50404 5.5409 6.72208 5.71311 6.97701 5.81436C7.23194 5.91561 7.51226 5.94133 7.78235 5.88825C8.05244 5.83518 8.30011 5.7057 8.4939 5.51626C8.68769 5.32683 8.81885 5.08599 8.87072 4.82435C8.9226 4.56271 8.89284 4.29206 8.78523 4.0468C8.67763 3.80154 8.49703 3.59273 8.26638 3.44689C8.03572 3.30106 7.76543 3.22479 7.48984 3.22776C7.12383 3.23172 6.7742 3.37503 6.51684 3.62661C6.25948 3.87819 6.11515 4.21772 6.11517 4.57152ZM10.4566 14.8636C10.5481 14.8637 10.6386 14.8461 10.723 14.8121C10.8073 14.778 10.8839 14.7281 10.9482 14.6653C11.0125 14.6025 11.0632 14.5279 11.0975 14.446C11.1318 14.3641 11.1489 14.2764 11.1478 14.188V14.0829C11.1489 13.9945 11.1318 13.9069 11.0975 13.8249C11.0632 13.743 11.0125 13.6685 10.9482 13.6056C10.8839 13.5428 10.8073 13.4929 10.723 13.4589C10.6386 13.4248 10.5481 13.4073 10.4566 13.4073H7.6607C7.44226 13.4077 7.23096 13.3321 7.06551 13.1942C6.90006 13.0563 6.79153 12.8655 6.75979 12.6566L5.79674 6.65097C5.75021 6.33225 5.75021 6.00879 5.79674 5.69007L6.05304 3.39292V3.3704L11.9323 1.11829C12.0453 1.07452 12.1421 0.998811 12.21 0.901051C12.2779 0.80329 12.3137 0.688017 12.3128 0.570279C12.3238 0.498096 12.3238 0.424757 12.3128 0.352575C12.2541 0.210258 12.1393 0.0963121 11.9936 0.0357821C11.848 -0.024748 11.6835 -0.0269093 11.5362 0.0297732L0.888327 4.06104C0.775007 4.10534 0.677722 4.18096 0.608649 4.27843C0.539576 4.37591 0.501783 4.49092 0.500003 4.60906C0.499761 4.68396 0.51563 4.7581 0.546602 4.82676C0.574944 4.8979 0.617563 4.96291 0.672005 5.01806C0.726447 5.07321 0.791637 5.11741 0.863823 5.14811C0.936008 5.17881 1.01376 5.19541 1.09261 5.19695C1.17146 5.19848 1.24984 5.18493 1.32325 5.15707L4.70944 3.87337L4.44537 5.615C4.3871 5.97061 4.3871 6.33288 4.44537 6.6885L5.50938 13.7451C5.55037 14.0528 5.70149 14.337 5.93654 14.5484C6.17812 14.7507 6.48675 14.8625 6.80639 14.8636H10.4566Z" fill="black"/>
</g>
<defs>
<clipPath id="clip0_2795_15302">
<rect width="18" height="18" fill="white" transform="translate(0.5)"/>
</clipPath>
</defs>
</svg>
