<svg width="18" height="18" viewBox="0 0 18 18" fill="none" xmlns="http://www.w3.org/2000/svg">
<g clip-path="url(#clip0_2795_15293)">
<path d="M15.3774 10.3237C15.2121 9.82725 14.7463 9.4984 14.2233 9.4984H13.6786V9.1314C13.6786 8.73933 13.3632 8.40749 12.9711 8.40749H11.3291V7.26045C11.3291 7.05244 11.2207 6.86202 11.0362 6.76624L8.68341 5.54064V4.42578C8.50645 4.49724 8.31341 4.53727 8.11139 4.53727C7.91647 4.53727 7.73016 4.50023 7.55845 4.43326V5.87922C7.55845 6.08723 7.66656 6.27765 7.851 6.37342L10.2046 7.59902V8.40786H8.71334C8.32127 8.40786 7.9883 8.7397 7.9883 9.13177V9.49878H7.4608C6.93704 9.49878 6.47202 9.82763 6.30666 10.3241L5.85959 11.6623C5.40878 13.0155 5.40878 14.4768 5.85959 15.8303L6.30666 17.17C6.47239 17.6661 6.93704 17.9998 7.46118 17.9998H14.2229C14.7459 17.9998 15.2117 17.6653 15.3771 17.1685L15.8245 15.8273C16.2746 14.4749 16.2746 13.0125 15.8245 11.6589L15.3774 10.3237ZM15.1302 14.3002C15.0647 14.9186 14.5424 15.3866 13.9206 15.3866H7.76383C7.14056 15.3866 6.61942 14.9193 6.55432 14.2998C6.47464 13.5456 6.55582 12.7798 6.79862 12.051L7.16188 10.9657C7.29582 10.5624 7.67292 10.293 8.09792 10.293H13.5862C14.0116 10.293 14.389 10.5628 14.523 10.9661L14.8859 12.0532C15.1287 12.7805 15.2098 13.5463 15.1302 14.3002Z" fill="black"/>
<path d="M7.36975 4.28341C7.35966 4.23594 7.35213 4.18793 7.34638 4.14112L3.31793 5.85872C3.03454 5.98008 2.90354 6.31673 3.02434 6.61176C3.13179 6.87272 3.39979 7.01343 3.65649 6.95886C3.69013 6.95171 3.72349 6.94145 3.75568 6.92746L7.88537 5.16652C7.63352 4.94538 7.44571 4.64077 7.36975 4.28341Z" fill="black"/>
<path d="M15.8722 1.41404C15.7238 1.08885 15.295 0.94991 14.922 1.09766L5.29134 4.93667C5.47514 5.13911 5.60846 5.38403 5.66929 5.66122C5.70632 5.82998 5.71372 5.99994 5.69538 6.16581L15.4594 2.2741C15.8364 2.1237 16.0206 1.73923 15.8722 1.41404Z" fill="black"/>
</g>
<defs>
<clipPath id="clip0_2795_15293">
<rect width="18" height="18" fill="white"/>
</clipPath>
</defs>
</svg>
