<svg width="19" height="18" viewBox="0 0 19 18" fill="none" xmlns="http://www.w3.org/2000/svg">
<g clip-path="url(#clip0_2795_15308)">
<path d="M9.60906 1.28407C9.65307 2.00365 9.07985 2.62422 8.32874 2.67016C7.57763 2.7161 6.93306 2.17001 6.88904 1.45044C6.84503 0.730861 7.41825 0.110287 8.16936 0.064347C8.92048 0.018407 9.56505 0.564497 9.60906 1.28407Z" fill="black"/>
<path d="M9.79516 14.3478L9.32278 14.4557L9.23413 14.0919L9.70651 13.9839L9.79516 14.3478Z" fill="black"/>
<path d="M8.8504 14.5637L8.37802 14.6716L8.28937 14.3077L8.76175 14.1998L8.8504 14.5637Z" fill="black"/>
<path fill-rule="evenodd" clip-rule="evenodd" d="M15.5188 13.4574C15.5539 13.3788 15.5777 13.3773 15.6811 13.371C15.8322 13.3618 15.9286 13.5012 15.9383 13.6612C15.9711 13.7935 15.9506 13.9331 15.881 14.0521C15.8114 14.1711 15.6977 14.2609 15.5625 14.3036L4.46213 16.8486L3.91099 16.9741C3.81928 17.0066 3.72006 17.014 3.62447 16.9956C3.52888 16.9771 3.44067 16.9335 3.36974 16.8696L3.36694 16.8239C3.35855 16.6867 3.54899 16.5374 3.8007 16.4761L5.59587 16.0681L5.74005 15.2705L5.61801 15.2983L5.52961 14.9344L5.73037 14.8887L5.77548 15.0744L6.85935 8.79415C6.84636 8.71611 6.84152 8.63699 6.8449 8.55795L6.87997 4.69364L5.84499 5.2617L5.0684 7.18292C5.03448 7.24908 4.98709 7.30811 4.92903 7.35653C4.87097 7.40493 4.80342 7.44173 4.73038 7.46474C4.65734 7.48775 4.58031 7.49651 4.50384 7.49048C4.42737 7.48445 4.35302 7.46377 4.28519 7.42966C4.17648 7.39333 4.08081 7.3283 4.00917 7.24205C3.93753 7.1558 3.89282 7.05182 3.88016 6.94203C3.8616 6.88282 3.85777 6.8202 3.86898 6.75917L4.8019 4.52247C4.82901 4.46377 4.86619 4.40979 4.91188 4.36279L5.04196 4.2707L7.11518 3.18792C7.22358 3.03725 7.36809 2.91361 7.5365 2.82743C7.70491 2.74126 7.89228 2.69508 8.08278 2.69281L8.16231 2.68795C8.43394 2.69146 8.69723 2.77605 8.91554 2.92992C9.13385 3.0838 9.29632 3.29932 9.38034 3.54649L10.8659 4.6028L13.0213 4.47097C13.1712 4.47541 13.3131 4.53602 13.4165 4.63979C13.5198 4.74356 13.5764 4.88223 13.5741 5.02605C13.5917 5.16738 13.5513 5.31002 13.4615 5.42394C13.3717 5.53785 13.2394 5.61414 13.0926 5.63674L10.5873 5.78996C10.5206 5.79504 10.4539 5.78331 10.3936 5.75592C10.3463 5.74346 10.3017 5.72287 10.2622 5.69513L9.42769 5.10375L9.41527 8.16365L11.7546 11.5615C11.8805 11.6764 11.9557 11.8331 11.965 11.9999L12.0536 13.4487L12.2139 13.412L12.3025 13.7759L12.1096 13.82L12.0651 13.6375L12.123 14.5828L15.4588 13.7823C15.5046 13.7521 15.5046 13.6703 15.5046 13.5925C15.5046 13.5399 15.5046 13.4891 15.5188 13.4574ZM7.4383 15.6494L10.5168 14.9488L10.4808 14.1912L10.2675 14.2399L10.1789 13.876L10.4151 13.8221L10.4749 14.0675L10.4051 12.6L8.5213 9.86262L7.65656 14.4523L7.81699 14.4156L7.90564 14.7795L7.66945 14.8335L7.62177 14.6378L7.47061 15.5251C7.46348 15.5673 7.45267 15.6089 7.4383 15.6494Z" fill="black"/>
<path d="M18.8603 14.5544L18.6546 14.6013L18.5661 14.2374L18.7718 14.1904L18.8603 14.5544Z" fill="black"/>
<path d="M18.2431 14.6951L17.8317 14.7889L17.7432 14.425L18.1546 14.3312L18.2431 14.6951Z" fill="black"/>
<path d="M17.4202 14.8827L17.0087 14.9765L16.9202 14.6126L17.3317 14.5188L17.4202 14.8827Z" fill="black"/>
<path d="M16.5972 15.0704L16.1858 15.1642L16.0973 14.8002L16.5088 14.7064L16.5972 15.0704Z" fill="black"/>
<path d="M15.7743 15.258L15.3628 15.3518L15.2744 14.9879L15.6858 14.8941L15.7743 15.258Z" fill="black"/>
<path d="M14.9514 15.4456L14.5399 15.5394L14.4514 15.1755L14.8629 15.0817L14.9514 15.4456Z" fill="black"/>
<path d="M14.1284 15.6332L13.7169 15.7271L13.6285 15.3631L14.0399 15.2693L14.1284 15.6332Z" fill="black"/>
<path d="M13.3055 15.8209L12.894 15.9147L12.8055 15.5508L13.217 15.457L13.3055 15.8209Z" fill="black"/>
<path d="M12.4825 16.0085L12.0711 16.1023L11.9826 15.7384L12.3941 15.6446L12.4825 16.0085Z" fill="black"/>
<path d="M11.6596 16.1961L11.2481 16.29L11.1597 15.926L11.5711 15.8322L11.6596 16.1961Z" fill="black"/>
<path d="M10.8367 16.3838L10.4252 16.4776L10.3367 16.1137L10.7482 16.0198L10.8367 16.3838Z" fill="black"/>
<path d="M10.0137 16.5714L9.60225 16.6652L9.51378 16.3013L9.92525 16.2075L10.0137 16.5714Z" fill="black"/>
<path d="M9.19078 16.759L8.77931 16.8528L8.69084 16.4889L9.10231 16.3951L9.19078 16.759Z" fill="black"/>
<path d="M8.36784 16.9467L7.95637 17.0405L7.8679 16.6765L8.27937 16.5827L8.36784 16.9467Z" fill="black"/>
<path d="M7.5449 17.1343L7.13343 17.2281L7.04496 16.8642L7.45643 16.7704L7.5449 17.1343Z" fill="black"/>
<path d="M6.72196 17.3219L6.31049 17.4157L6.22202 17.0518L6.63349 16.958L6.72196 17.3219Z" fill="black"/>
<path d="M5.89902 17.5095L5.48755 17.6034L5.39908 17.2394L5.81055 17.1456L5.89902 17.5095Z" fill="black"/>
<path d="M5.07609 17.6972L4.66461 17.791L4.57614 17.4271L4.98761 17.3333L5.07609 17.6972Z" fill="black"/>
<path d="M4.25315 17.8848L3.84168 17.9786L3.7532 17.6147L4.16467 17.5209L4.25315 17.8848Z" fill="black"/>
<path d="M3.43021 18.0724L3.01874 18.1663L2.93026 17.8023L3.34173 17.7085L3.43021 18.0724Z" fill="black"/>
<path d="M2.60727 18.2601L2.1958 18.3539L2.10732 17.99L2.51879 17.8961L2.60727 18.2601Z" fill="black"/>
<path d="M1.78433 18.4477L1.57859 18.4946L1.49012 18.1307L1.69585 18.0838L1.78433 18.4477Z" fill="black"/>
<path d="M18.0892 12.4541L18.282 12.41L18.1934 12.0461L18.0005 12.0902L18.0892 12.4541Z" fill="black"/>
<path d="M17.3176 12.6303L17.7034 12.5422L17.6147 12.1783L17.229 12.2664L17.3176 12.6303Z" fill="black"/>
<path d="M16.546 12.8066L16.9318 12.7184L16.8432 12.3546L16.4574 12.4427L16.546 12.8066Z" fill="black"/>
<path d="M15.7745 12.9828L16.1603 12.8947L16.0716 12.5308L15.6859 12.6189L15.7745 12.9828Z" fill="black"/>
<path d="M15.0029 13.1591L15.3887 13.0709L15.3001 12.7071L14.9143 12.7952L15.0029 13.1591Z" fill="black"/>
<path d="M14.2314 13.3353L14.6172 13.2472L14.5285 12.8833L14.1427 12.9714L14.2314 13.3353Z" fill="black"/>
<path d="M13.4598 13.5116L13.8456 13.4234L13.757 13.0596L13.3712 13.1477L13.4598 13.5116Z" fill="black"/>
<path d="M12.6883 13.6878L13.074 13.5997L12.9854 13.2358L12.5996 13.3239L12.6883 13.6878Z" fill="black"/>
<path d="M4.81493 15.4813L5.21647 15.3898L5.12807 15.0259L4.72653 15.1174L4.81493 15.4813Z" fill="black"/>
<path d="M4.01185 15.6643L4.41339 15.5728L4.32499 15.2088L3.92345 15.3003L4.01185 15.6643Z" fill="black"/>
<path d="M3.20878 15.8472L3.61032 15.7557L3.52191 15.3918L3.12037 15.4833L3.20878 15.8472Z" fill="black"/>
<path d="M2.4057 16.0302L2.80724 15.9387L2.71883 15.5747L2.31729 15.6662L2.4057 16.0302Z" fill="black"/>
<path d="M1.60262 16.2131L2.00416 16.1216L1.91575 15.7577L1.51422 15.8492L1.60262 16.2131Z" fill="black"/>
<path d="M1.00031 16.3503L1.20108 16.3046L1.11268 15.9407L0.911907 15.9864L1.00031 16.3503Z" fill="black"/>
</g>
<defs>
<clipPath id="clip0_2795_15308">
<rect width="18" height="18" fill="white" transform="translate(0.5)"/>
</clipPath>
</defs>
</svg>
