<svg width="16" height="18" viewBox="0 0 16 18" fill="none" xmlns="http://www.w3.org/2000/svg">
<path fill-rule="evenodd" clip-rule="evenodd" d="M5 0.75C5.41421 0.75 5.75 1.08579 5.75 1.5V2.25H10.25V1.5C10.25 1.08579 10.5858 0.75 11 0.75C11.4142 0.75 11.75 1.08579 11.75 1.5V2.25H13.25C13.8467 2.25 14.419 2.48705 14.841 2.90901C15.2629 3.33097 15.5 3.90326 15.5 4.5V15C15.5 15.5967 15.2629 16.169 14.841 16.591C14.419 17.0129 13.8467 17.25 13.25 17.25H2.75C2.15326 17.25 1.58097 17.0129 1.15901 16.591C0.737053 16.169 0.5 15.5967 0.5 15V4.5C0.5 3.90326 0.737053 3.33097 1.15901 2.90901C1.58097 2.48705 2.15326 2.25 2.75 2.25H4.25V1.5C4.25 1.08579 4.58579 0.75 5 0.75ZM4.25 3.75H2.75C2.55109 3.75 2.36032 3.82902 2.21967 3.96967C2.07902 4.11032 2 4.30109 2 4.5V6.75H14V4.5C14 4.30109 13.921 4.11032 13.7803 3.96967C13.6397 3.82902 13.4489 3.75 13.25 3.75H11.75V4.5C11.75 4.91421 11.4142 5.25 11 5.25C10.5858 5.25 10.25 4.91421 10.25 4.5V3.75H5.75V4.5C5.75 4.91421 5.41421 5.25 5 5.25C4.58579 5.25 4.25 4.91421 4.25 4.5V3.75ZM14 8.25H2V15C2 15.1989 2.07902 15.3897 2.21967 15.5303C2.36032 15.671 2.55109 15.75 2.75 15.75H13.25C13.4489 15.75 13.6397 15.671 13.7803 15.5303C13.921 15.3897 14 15.1989 14 15V8.25Z" fill="#2C2D2E"/>
</svg>
